<mxfile host="Electron" agent="Mozilla/5.0 (Macintosh; Intel Mac OS X 10_15_7) AppleWebKit/537.36 (KHTML, like Gecko) draw.io/27.0.9 Chrome/134.0.6998.205 Electron/35.4.0 Safari/537.36" version="27.0.9">
  <diagram id="5rNSY2tUoU9Agg84JnWr" name="Страница — 1">
    <mxGraphModel dx="7187" dy="5580" grid="1" gridSize="10" guides="1" tooltips="1" connect="1" arrows="1" fold="1" page="0" pageScale="1" pageWidth="827" pageHeight="1169" background="none" math="0" shadow="0">
      <root>
        <mxCell id="0" />
        <mxCell id="1" parent="0" />
        <mxCell id="node26" value="&lt;p style=&quot;margin:0px;margin-top:4px;text-align:center;&quot;&gt;&lt;i&gt;&amp;lt;&amp;lt;enumeration&amp;gt;&amp;gt;&lt;/i&gt;&lt;br/&gt;&lt;b&gt;Color&lt;/b&gt;&lt;/p&gt;&lt;hr size=&quot;1&quot;/&gt;&lt;p style=&quot;margin:0 0 0 4px;line-height:1.6;&quot;&gt;+ valueOf(String): Color&lt;br/&gt;+ values(): Color[]&lt;/p&gt;" style="verticalAlign=top;align=left;overflow=fill;fontSize=14;fontFamily=Helvetica;html=1;rounded=0;shadow=0;comic=0;labelBackgroundColor=none;strokeWidth=1;" parent="1" vertex="1">
          <mxGeometry x="5976" y="2887" width="180" height="109" as="geometry" />
        </mxCell>
        <mxCell id="node60" value="&lt;p style=&quot;margin:0px;margin-top:4px;text-align:center;&quot;&gt;&lt;b&gt;Coordinates&lt;/b&gt;&lt;/p&gt;&lt;hr size=&quot;1&quot;&gt;&lt;p style=&quot;margin:0 0 0 4px;line-height:1.6;&quot;&gt;&lt;span style=&quot;background-color: transparent; color: light-dark(rgb(0, 0, 0), rgb(255, 255, 255));&quot;&gt;x: long&lt;/span&gt;&lt;/p&gt;&lt;p style=&quot;margin:0 0 0 4px;line-height:1.6;&quot;&gt; id: Long&lt;br&gt; y: Float&lt;/p&gt;" style="verticalAlign=top;align=left;overflow=fill;fontSize=14;fontFamily=Helvetica;html=1;rounded=0;shadow=0;comic=0;labelBackgroundColor=none;strokeWidth=1;" parent="1" vertex="1">
          <mxGeometry x="5413" y="2602" width="223" height="118" as="geometry" />
        </mxCell>
        <mxCell id="node13" value="&lt;p style=&quot;margin:0px;margin-top:4px;text-align:center;&quot;&gt;&lt;b&gt;CoordinatesController&lt;/b&gt;&lt;/p&gt;&lt;hr size=&quot;1&quot;/&gt;&lt;p style=&quot;margin:0 0 0 4px;line-height:1.6;&quot;&gt;+ apiV1CoordinatesPost(CoordinatesAddRequest): ResponseEntity&amp;lt;CoordinatesResponse&amp;gt;&lt;br/&gt;- resolveSortField(String, String): String&lt;br/&gt;+ apiV1CoordinatesIdGet(Long): ResponseEntity&amp;lt;CoordinatesResponse&amp;gt;&lt;br/&gt;- resolveDirection(String): Direction&lt;br/&gt;+ apiV1CoordinatesIdPatch(Long, CoordinatesUpdateRequest): ResponseEntity&amp;lt;CoordinatesResponse&amp;gt;&lt;br/&gt;+ apiV1CoordinatesByIdsGet(List&amp;lt;Long&amp;gt;): ResponseEntity&amp;lt;List&amp;lt;CoordinatesResponse&amp;gt;&amp;gt;&lt;br/&gt;+ apiV1CoordinatesIdDelete(Long): ResponseEntity&amp;lt;CoordinatesResponse&amp;gt;&lt;br/&gt;+ apiV1CoordinatesGet(Integer, Integer, String, String, String): ResponseEntity&amp;lt;PagedModel&amp;gt;&lt;br/&gt;+ apiV1CoordinatesPatch(List&amp;lt;Long&amp;gt;, CoordinatesUpdateRequest): ResponseEntity&amp;lt;List&amp;lt;CoordinatesResponse&amp;gt;&amp;gt;&lt;br/&gt;- toPageable(Integer, Integer): Pageable&lt;br/&gt;+ apiV1CoordinatesDelete(List&amp;lt;Long&amp;gt;): ResponseEntity&amp;lt;Void&amp;gt;&lt;/p&gt;" style="verticalAlign=top;align=left;overflow=fill;fontSize=14;fontFamily=Helvetica;html=1;rounded=0;shadow=0;comic=0;labelBackgroundColor=none;strokeWidth=1;" parent="1" vertex="1">
          <mxGeometry x="615" y="2419" width="742" height="303" as="geometry" />
        </mxCell>
        <mxCell id="node54" value="&lt;p style=&quot;margin:0px;margin-top:4px;text-align:center;&quot;&gt;&lt;b&gt;CoordinatesMapperImpl&lt;/b&gt;&lt;/p&gt;&lt;hr size=&quot;1&quot;/&gt;&lt;p style=&quot;margin:0 0 0 4px;line-height:1.6;&quot;&gt;+ toEntity(CoordinatesResponse): Coordinates&lt;br/&gt;+ toEntity(CoordinatesAddRequest): Coordinates&lt;br/&gt;+ toCoordinatesAddRequest(Coordinates): CoordinatesAddRequest&lt;br/&gt;+ toCoordinatesResponse(Coordinates): CoordinatesResponse&lt;br/&gt;+ updateWithNull(CoordinatesUpdateRequest, Coordinates): void&lt;br/&gt;+ toCoordinatesUpdateRequest(Coordinates): CoordinatesUpdateRequest&lt;br/&gt;+ toEntity(CoordinatesUpdateRequest): Coordinates&lt;/p&gt;" style="verticalAlign=top;align=left;overflow=fill;fontSize=14;fontFamily=Helvetica;html=1;rounded=0;shadow=0;comic=0;labelBackgroundColor=none;strokeWidth=1;" parent="1" vertex="1">
          <mxGeometry x="1600" y="-13" width="492" height="207" as="geometry" />
        </mxCell>
        <mxCell id="node33" value="&lt;p style=&quot;margin:0px;margin-top:4px;text-align:center;&quot;&gt;&lt;i&gt;&amp;lt;&amp;lt;interface&amp;gt;&amp;gt;&lt;/i&gt;&lt;br/&gt;&lt;b&gt;CoordinatesRepository&lt;/b&gt;&lt;/p&gt;&lt;hr size=&quot;1&quot;/&gt;" style="verticalAlign=top;align=left;overflow=fill;fontSize=14;fontFamily=Helvetica;html=1;rounded=0;shadow=0;comic=0;labelBackgroundColor=none;strokeWidth=1;" parent="1" vertex="1">
          <mxGeometry x="4113" y="1276" width="227" height="35" as="geometry" />
        </mxCell>
        <mxCell id="node32" value="&lt;p style=&quot;margin:0px;margin-top:4px;text-align:center;&quot;&gt;&lt;b&gt;CoordinatesService&lt;/b&gt;&lt;/p&gt;&lt;hr size=&quot;1&quot;/&gt;&lt;p style=&quot;margin:0 0 0 4px;line-height:1.6;&quot;&gt;- validateAllIdsPresent(List&amp;lt;Long&amp;gt;, Collection&amp;lt;Coordinates&amp;gt;): void&lt;br/&gt;+ updateMany(List&amp;lt;Long&amp;gt;, CoordinatesUpdateRequest): List&amp;lt;CoordinatesResponse&amp;gt;&lt;br/&gt;+ delete(Long): CoordinatesResponse&lt;br/&gt;+ deleteMany(List&amp;lt;Long&amp;gt;): void&lt;br/&gt;- applySorting(Pageable, String, Direction): Pageable&lt;br/&gt;+ getAll(Pageable, String, Direction): Page&amp;lt;CoordinatesResponse&amp;gt;&lt;br/&gt;+ getById(Long): CoordinatesResponse&lt;br/&gt;+ getByIds(List&amp;lt;Long&amp;gt;): List&amp;lt;CoordinatesResponse&amp;gt;&lt;br/&gt;+ create(CoordinatesAddRequest): CoordinatesResponse&lt;br/&gt;+ update(Long, CoordinatesUpdateRequest): CoordinatesResponse&lt;/p&gt;" style="verticalAlign=top;align=left;overflow=fill;fontSize=14;fontFamily=Helvetica;html=1;rounded=0;shadow=0;comic=0;labelBackgroundColor=none;strokeWidth=1;" parent="1" vertex="1">
          <mxGeometry x="2310" y="1340" width="562" height="279" as="geometry" />
        </mxCell>
        <mxCell id="node7" value="&lt;p style=&quot;margin:0px;margin-top:4px;text-align:center;&quot;&gt;&lt;i&gt;&amp;lt;&amp;lt;enumeration&amp;gt;&amp;gt;&lt;/i&gt;&lt;br/&gt;&lt;b&gt;Country&lt;/b&gt;&lt;/p&gt;&lt;hr size=&quot;1&quot;/&gt;&lt;p style=&quot;margin:0 0 0 4px;line-height:1.6;&quot;&gt;+ valueOf(String): Country&lt;br/&gt;+ values(): Country[]&lt;/p&gt;" style="verticalAlign=top;align=left;overflow=fill;fontSize=14;fontFamily=Helvetica;html=1;rounded=0;shadow=0;comic=0;labelBackgroundColor=none;strokeWidth=1;" parent="1" vertex="1">
          <mxGeometry x="5748" y="2947" width="197" height="109" as="geometry" />
        </mxCell>
        <mxCell id="node55" value="&lt;p style=&quot;margin:0px;margin-top:4px;text-align:center;&quot;&gt;&lt;b&gt;EntityChangeNotifier&lt;/b&gt;&lt;/p&gt;&lt;hr size=&quot;1&quot;/&gt;&lt;p style=&quot;margin:0 0 0 4px;line-height:1.6;&quot;&gt;- sendSafe(WebSocketSession, EntityChange): boolean&lt;br/&gt;+ publish(String, String, Object): void&lt;br/&gt;+ unregister(WebSocketSession): void&lt;br/&gt;+ register(WebSocketSession): void&lt;/p&gt;" style="verticalAlign=top;align=left;overflow=fill;fontSize=14;fontFamily=Helvetica;html=1;rounded=0;shadow=0;comic=0;labelBackgroundColor=none;strokeWidth=1;" parent="1" vertex="1">
          <mxGeometry x="3537" y="2003" width="379" height="146" as="geometry" />
        </mxCell>
        <mxCell id="node17" value="&lt;p style=&quot;margin:0px;margin-top:4px;text-align:center;&quot;&gt;&lt;b&gt;EntityChangeWebSocketHandler&lt;/b&gt;&lt;/p&gt;&lt;hr size=&quot;1&quot;/&gt;&lt;p style=&quot;margin:0 0 0 4px;line-height:1.6;&quot;&gt;+ afterConnectionClosed(WebSocketSession, CloseStatus): void&lt;br/&gt;+ handleTransportError(WebSocketSession, Throwable): void&lt;br/&gt;# handleTextMessage(WebSocketSession, TextMessage): void&lt;br/&gt;+ afterConnectionEstablished(WebSocketSession): void&lt;/p&gt;" style="verticalAlign=top;align=left;overflow=fill;fontSize=14;fontFamily=Helvetica;html=1;rounded=0;shadow=0;comic=0;labelBackgroundColor=none;strokeWidth=1;" parent="1" vertex="1">
          <mxGeometry x="1540" y="2195" width="432" height="146" as="geometry" />
        </mxCell>
        <mxCell id="node52" value="&lt;p style=&quot;margin:0px;margin-top:4px;text-align:center;&quot;&gt;&lt;i&gt;&amp;lt;&amp;lt;enumeration&amp;gt;&amp;gt;&lt;/i&gt;&lt;br/&gt;&lt;b&gt;FormOfEducation&lt;/b&gt;&lt;/p&gt;&lt;hr size=&quot;1&quot;/&gt;&lt;p style=&quot;margin:0 0 0 4px;line-height:1.6;&quot;&gt;+ values(): FormOfEducation[]&lt;br/&gt;+ valueOf(String): FormOfEducation&lt;/p&gt;" style="verticalAlign=top;align=left;overflow=fill;fontSize=14;fontFamily=Helvetica;html=1;rounded=0;shadow=0;comic=0;labelBackgroundColor=none;strokeWidth=1;" parent="1" vertex="1">
          <mxGeometry x="5220" y="3130" width="255" height="109" as="geometry" />
        </mxCell>
        <mxCell id="node22" value="&lt;p style=&quot;margin:0px;margin-top:4px;text-align:center;&quot;&gt;&lt;b&gt;JpaConfig&lt;/b&gt;&lt;/p&gt;&lt;hr size=&quot;1&quot;/&gt;&lt;p style=&quot;margin:0 0 0 4px;line-height:1.6;&quot;&gt;+ exceptionTranslation(): PersistenceExceptionTranslationPostProcessor&lt;/p&gt;" style="verticalAlign=top;align=left;overflow=fill;fontSize=14;fontFamily=Helvetica;html=1;rounded=0;shadow=0;comic=0;labelBackgroundColor=none;strokeWidth=1;" parent="1" vertex="1">
          <mxGeometry x="-55" y="299" width="483" height="68" as="geometry" />
        </mxCell>
        <mxCell id="node34" value="&lt;p style=&quot;margin:0px;margin-top:4px;text-align:center;&quot;&gt;&lt;b&gt;Location&lt;/b&gt;&lt;/p&gt;&lt;hr size=&quot;1&quot;&gt;&lt;p style=&quot;margin:0 0 0 4px;line-height:1.6;&quot;&gt;&lt;span style=&quot;background-color: transparent; color: light-dark(rgb(0, 0, 0), rgb(255, 255, 255));&quot;&gt;name: String&lt;/span&gt;&lt;/p&gt;&lt;p style=&quot;margin:0 0 0 4px;line-height:1.6;&quot;&gt; z: double&lt;br&gt; y: Double&lt;br&gt; id: Long&lt;br&gt; x: int&lt;/p&gt;" style="verticalAlign=top;align=left;overflow=fill;fontSize=14;fontFamily=Helvetica;html=1;rounded=0;shadow=0;comic=0;labelBackgroundColor=none;strokeWidth=1;" parent="1" vertex="1">
          <mxGeometry x="5746" y="2658" width="201" height="152" as="geometry" />
        </mxCell>
        <mxCell id="node35" value="&lt;p style=&quot;margin:0px;margin-top:4px;text-align:center;&quot;&gt;&lt;b&gt;LocationController&lt;/b&gt;&lt;/p&gt;&lt;hr size=&quot;1&quot;/&gt;&lt;p style=&quot;margin:0 0 0 4px;line-height:1.6;&quot;&gt;+ apiV1LocationsByIdsGet(List&amp;lt;Long&amp;gt;): ResponseEntity&amp;lt;List&amp;lt;LocationResponse&amp;gt;&amp;gt;&lt;br/&gt;- resolveDirection(String): Direction&lt;br/&gt;+ apiV1LocationsPost(LocationAddRequest): ResponseEntity&amp;lt;LocationResponse&amp;gt;&lt;br/&gt;- toPageable(Integer, Integer): Pageable&lt;br/&gt;+ apiV1LocationsDelete(List&amp;lt;Long&amp;gt;): ResponseEntity&amp;lt;Void&amp;gt;&lt;br/&gt;+ apiV1LocationsIdDelete(Long): ResponseEntity&amp;lt;LocationResponse&amp;gt;&lt;br/&gt;- resolveSortField(String, String): String&lt;br/&gt;+ apiV1LocationsIdGet(Long): ResponseEntity&amp;lt;LocationResponse&amp;gt;&lt;br/&gt;+ apiV1LocationsPatch(List&amp;lt;Long&amp;gt;, LocationUpdateRequest): ResponseEntity&amp;lt;List&amp;lt;LocationResponse&amp;gt;&amp;gt;&lt;br/&gt;+ apiV1LocationsGet(Integer, Integer, String, String, String): ResponseEntity&amp;lt;PagedModel&amp;gt;&lt;br/&gt;+ apiV1LocationsIdPatch(Long, LocationUpdateRequest): ResponseEntity&amp;lt;LocationResponse&amp;gt;&lt;/p&gt;" style="verticalAlign=top;align=left;overflow=fill;fontSize=14;fontFamily=Helvetica;html=1;rounded=0;shadow=0;comic=0;labelBackgroundColor=none;strokeWidth=1;" parent="1" vertex="1">
          <mxGeometry x="-155" y="1459" width="682" height="303" as="geometry" />
        </mxCell>
        <mxCell id="node56" value="&lt;p style=&quot;margin:0px;margin-top:4px;text-align:center;&quot;&gt;&lt;i&gt;&amp;lt;&amp;lt;interface&amp;gt;&amp;gt;&lt;/i&gt;&lt;br/&gt;&lt;b&gt;LocationMapper&lt;/b&gt;&lt;/p&gt;&lt;hr size=&quot;1&quot;/&gt;&lt;p style=&quot;margin:0 0 0 4px;line-height:1.6;&quot;&gt;+ toEntity(LocationAddRequest): Location&lt;br/&gt;+ toEntity(LocationResponse): Location&lt;br/&gt;+ toLocationAddRequest(Location): LocationAddRequest&lt;br/&gt;+ toEntity(LocationUpdateRequest): Location&lt;br/&gt;+ toLocationResponse(Location): LocationResponse&lt;br/&gt;+ updateWithNull(LocationUpdateRequest, Location): void&lt;br/&gt;+ toLocationUpdateRequest(Location): LocationUpdateRequest&lt;/p&gt;" style="verticalAlign=top;align=left;overflow=fill;fontSize=14;fontFamily=Helvetica;html=1;rounded=0;shadow=0;comic=0;labelBackgroundColor=none;strokeWidth=1;" parent="1" vertex="1">
          <mxGeometry x="4013" y="2407" width="426" height="207" as="geometry" />
        </mxCell>
        <mxCell id="node42" value="&lt;p style=&quot;margin:0px;margin-top:4px;text-align:center;&quot;&gt;&lt;i&gt;&amp;lt;&amp;lt;interface&amp;gt;&amp;gt;&lt;/i&gt;&lt;br/&gt;&lt;b&gt;LocationRepository&lt;/b&gt;&lt;/p&gt;&lt;hr size=&quot;1&quot;/&gt;" style="verticalAlign=top;align=left;overflow=fill;fontSize=14;fontFamily=Helvetica;html=1;rounded=0;shadow=0;comic=0;labelBackgroundColor=none;strokeWidth=1;" parent="1" vertex="1">
          <mxGeometry x="4180" y="2115.5" width="199" height="35" as="geometry" />
        </mxCell>
        <mxCell id="node38" value="&lt;p style=&quot;margin:0px;margin-top:4px;text-align:center;&quot;&gt;&lt;b&gt;LocationService&lt;/b&gt;&lt;/p&gt;&lt;hr size=&quot;1&quot;/&gt;&lt;p style=&quot;margin:0 0 0 4px;line-height:1.6;&quot;&gt;+ getAll(Pageable, String, Direction): Page&amp;lt;LocationResponse&amp;gt;&lt;br/&gt;+ update(Long, LocationUpdateRequest): LocationResponse&lt;br/&gt;- applySorting(Pageable, String, Direction): Pageable&lt;br/&gt;+ updateMany(List&amp;lt;Long&amp;gt;, LocationUpdateRequest): List&amp;lt;LocationResponse&amp;gt;&lt;br/&gt;- validateAllIdsPresent(List&amp;lt;Long&amp;gt;, Collection&amp;lt;Location&amp;gt;): void&lt;br/&gt;+ getByIds(List&amp;lt;Long&amp;gt;): List&amp;lt;LocationResponse&amp;gt;&lt;br/&gt;+ delete(Long): LocationResponse&lt;br/&gt;+ getById(Long): LocationResponse&lt;br/&gt;- validateUpdateRequest(LocationUpdateRequest): void&lt;br/&gt;+ deleteMany(List&amp;lt;Long&amp;gt;): void&lt;br/&gt;+ create(LocationAddRequest): LocationResponse&lt;/p&gt;" style="verticalAlign=top;align=left;overflow=fill;fontSize=14;fontFamily=Helvetica;html=1;rounded=0;shadow=0;comic=0;labelBackgroundColor=none;strokeWidth=1;" parent="1" vertex="1">
          <mxGeometry x="2367" y="2399" width="518" height="303" as="geometry" />
        </mxCell>
        <mxCell id="node18" value="&lt;p style=&quot;margin:0px;margin-top:4px;text-align:center;&quot;&gt;&lt;b&gt;Person&lt;/b&gt;&lt;/p&gt;&lt;hr size=&quot;1&quot;&gt;&lt;p style=&quot;margin:0 0 0 4px;line-height:1.6;&quot;&gt;&lt;span style=&quot;background-color: transparent; color: light-dark(rgb(0, 0, 0), rgb(255, 255, 255));&quot;&gt;name: String&lt;/span&gt;&lt;/p&gt;&lt;p style=&quot;margin:0 0 0 4px;line-height:1.6;&quot;&gt; nationality: Country&lt;br&gt; id: Long&lt;br&gt; height: Long&lt;br&gt; eyeColor: Color&lt;br&gt; weight: float&lt;br&gt; location: Location&lt;br&gt; hairColor: Color&lt;/p&gt;" style="verticalAlign=top;align=left;overflow=fill;fontSize=14;fontFamily=Helvetica;html=1;rounded=0;shadow=0;comic=0;labelBackgroundColor=none;strokeWidth=1;" parent="1" vertex="1">
          <mxGeometry x="5360" y="2873" width="191" height="227" as="geometry" />
        </mxCell>
        <mxCell id="node9" value="&lt;p style=&quot;margin:0px;margin-top:4px;text-align:center;&quot;&gt;&lt;i&gt;&amp;lt;&amp;lt;record&amp;gt;&amp;gt;&lt;/i&gt;&lt;br/&gt;&lt;b&gt;PersonAddRequest&lt;/b&gt;&lt;/p&gt;&lt;hr size=&quot;1&quot;/&gt;&lt;p style=&quot;margin:0 0 0 4px;line-height:1.6;&quot;&gt;+ nationality(): Country&lt;br/&gt;+ location(): LocationAddRequest&lt;br/&gt;+ eyeColor(): Color&lt;br/&gt;+ hairColor(): Color&lt;br/&gt;+ locationId(): Long&lt;br/&gt;+ weight(): Float&lt;br/&gt;+ height(): Long&lt;br/&gt;+ name(): String&lt;/p&gt;" style="verticalAlign=top;align=left;overflow=fill;fontSize=14;fontFamily=Helvetica;html=1;rounded=0;shadow=0;comic=0;labelBackgroundColor=none;strokeWidth=1;" parent="1" vertex="1">
          <mxGeometry x="3606" y="2195" width="240" height="231" as="geometry" />
        </mxCell>
        <mxCell id="node29" value="&lt;p style=&quot;margin:0px;margin-top:4px;text-align:center;&quot;&gt;&lt;b&gt;PersonController&lt;/b&gt;&lt;/p&gt;&lt;hr size=&quot;1&quot;/&gt;&lt;p style=&quot;margin:0 0 0 4px;line-height:1.6;&quot;&gt;+ apiV1PersonsDelete(List&amp;lt;Long&amp;gt;): ResponseEntity&amp;lt;Void&amp;gt;&lt;br/&gt;- toPageable(Integer, Integer): Pageable&lt;br/&gt;+ apiV1PersonsIdDelete(Long): ResponseEntity&amp;lt;PersonResponse&amp;gt;&lt;br/&gt;+ apiV1PersonsIdPatch(Long, PersonUpdateRequest): ResponseEntity&amp;lt;PersonResponse&amp;gt;&lt;br/&gt;+ apiV1PersonsByIdsGet(List&amp;lt;Long&amp;gt;): ResponseEntity&amp;lt;List&amp;lt;PersonResponse&amp;gt;&amp;gt;&lt;br/&gt;+ apiV1PersonsPatch(List&amp;lt;Long&amp;gt;, PersonUpdateRequest): ResponseEntity&amp;lt;List&amp;lt;PersonResponse&amp;gt;&amp;gt;&lt;br/&gt;- resolveSortField(String, String): String&lt;br/&gt;+ apiV1PersonsGet(Integer, Integer, String, String, String): ResponseEntity&amp;lt;PagedModel&amp;gt;&lt;br/&gt;- resolveDirection(String): Direction&lt;br/&gt;+ apiV1PersonsIdGet(Long): ResponseEntity&amp;lt;PersonResponse&amp;gt;&lt;br/&gt;+ apiV1PersonsPost(PersonAddRequest): ResponseEntity&amp;lt;PersonResponse&amp;gt;&lt;/p&gt;" style="verticalAlign=top;align=left;overflow=fill;fontSize=14;fontFamily=Helvetica;html=1;rounded=0;shadow=0;comic=0;labelBackgroundColor=none;strokeWidth=1;" parent="1" vertex="1">
          <mxGeometry x="-145" y="1820" width="652" height="303" as="geometry" />
        </mxCell>
        <mxCell id="node12" value="&lt;p style=&quot;margin:0px;margin-top:4px;text-align:center;&quot;&gt;&lt;i&gt;&amp;lt;&amp;lt;interface&amp;gt;&amp;gt;&lt;/i&gt;&lt;br/&gt;&lt;b&gt;PersonMapper&lt;/b&gt;&lt;/p&gt;&lt;hr size=&quot;1&quot;/&gt;&lt;p style=&quot;margin:0 0 0 4px;line-height:1.6;&quot;&gt;+ toEntity(PersonResponse): Person&lt;br/&gt;+ toPersonResponse(Person): PersonResponse&lt;/p&gt;" style="verticalAlign=top;align=left;overflow=fill;fontSize=14;fontFamily=Helvetica;html=1;rounded=0;shadow=0;comic=0;labelBackgroundColor=none;strokeWidth=1;" parent="1" vertex="1">
          <mxGeometry x="4064" y="1867" width="325" height="109" as="geometry" />
        </mxCell>
        <mxCell id="node27" value="&lt;p style=&quot;margin:0px;margin-top:4px;text-align:center;&quot;&gt;&lt;b&gt;PersonMapperImpl&lt;/b&gt;&lt;/p&gt;&lt;hr size=&quot;1&quot;/&gt;&lt;p style=&quot;margin:0 0 0 4px;line-height:1.6;&quot;&gt;+ toPersonResponse(Person): PersonResponse&lt;br/&gt;+ toEntity(PersonResponse): Person&lt;/p&gt;" style="verticalAlign=top;align=left;overflow=fill;fontSize=14;fontFamily=Helvetica;html=1;rounded=0;shadow=0;comic=0;labelBackgroundColor=none;strokeWidth=1;" parent="1" vertex="1">
          <mxGeometry x="1684" y="2887" width="325" height="94" as="geometry" />
        </mxCell>
        <mxCell id="node23" value="&lt;p style=&quot;margin:0px;margin-top:4px;text-align:center;&quot;&gt;&lt;i&gt;&amp;lt;&amp;lt;interface&amp;gt;&amp;gt;&lt;/i&gt;&lt;br/&gt;&lt;b&gt;PersonRepository&lt;/b&gt;&lt;/p&gt;&lt;hr size=&quot;1&quot;/&gt;" style="verticalAlign=top;align=left;overflow=fill;fontSize=14;fontFamily=Helvetica;html=1;rounded=0;shadow=0;comic=0;labelBackgroundColor=none;strokeWidth=1;" parent="1" vertex="1">
          <mxGeometry x="3633" y="1316" width="187" height="35" as="geometry" />
        </mxCell>
        <mxCell id="node36" value="&lt;p style=&quot;margin:0px;margin-top:4px;text-align:center;&quot;&gt;&lt;i&gt;&amp;lt;&amp;lt;record&amp;gt;&amp;gt;&lt;/i&gt;&lt;br/&gt;&lt;b&gt;PersonResponse&lt;/b&gt;&lt;/p&gt;&lt;hr size=&quot;1&quot;/&gt;&lt;p style=&quot;margin:0 0 0 4px;line-height:1.6;&quot;&gt;+ height(): Long&lt;br/&gt;+ eyeColor(): Color&lt;br/&gt;+ id(): Long&lt;br/&gt;+ location(): LocationResponse&lt;br/&gt;+ hairColor(): Color&lt;br/&gt;+ nationality(): Country&lt;br/&gt;+ weight(): float&lt;br/&gt;+ name(): String&lt;/p&gt;" style="verticalAlign=top;align=left;overflow=fill;fontSize=14;fontFamily=Helvetica;html=1;rounded=0;shadow=0;comic=0;labelBackgroundColor=none;strokeWidth=1;" parent="1" vertex="1">
          <mxGeometry x="3614" y="2595" width="225" height="231" as="geometry" />
        </mxCell>
        <mxCell id="node47" value="&lt;p style=&quot;margin:0px;margin-top:4px;text-align:center;&quot;&gt;&lt;b&gt;PersonService&lt;/b&gt;&lt;/p&gt;&lt;hr size=&quot;1&quot;/&gt;&lt;p style=&quot;margin:0 0 0 4px;line-height:1.6;&quot;&gt;- validateUpdateRequest(PersonUpdateRequest): void&lt;br/&gt;+ create(PersonAddRequest): PersonResponse&lt;br/&gt;- validateLocationInput(Long, LocationAddRequest, boolean): void&lt;br/&gt;- applyUpdates(Person, PersonUpdateRequest): void&lt;br/&gt;- validateAllIdsPresent(List&amp;lt;Long&amp;gt;, Collection&amp;lt;Person&amp;gt;): void&lt;br/&gt;- applyUpdates(Person, PersonUpdateRequest, Location): void&lt;br/&gt;+ deleteMany(List&amp;lt;Long&amp;gt;): void&lt;br/&gt;- applySorting(Pageable, String, Direction): Pageable&lt;br/&gt;+ getByIds(List&amp;lt;Long&amp;gt;): List&amp;lt;PersonResponse&amp;gt;&lt;br/&gt;+ update(Long, PersonUpdateRequest): PersonResponse&lt;br/&gt;- resolveLocationForCreate(Long, LocationAddRequest): Location&lt;br/&gt;+ delete(Long): PersonResponse&lt;br/&gt;+ getAll(Pageable, String, Direction): Page&amp;lt;PersonResponse&amp;gt;&lt;br/&gt;+ updateMany(List&amp;lt;Long&amp;gt;, PersonUpdateRequest): List&amp;lt;PersonResponse&amp;gt;&lt;br/&gt;+ getById(Long): PersonResponse&lt;br/&gt;- resolveExistingLocation(Long): Location&lt;/p&gt;" style="verticalAlign=top;align=left;overflow=fill;fontSize=14;fontFamily=Helvetica;html=1;rounded=0;shadow=0;comic=0;labelBackgroundColor=none;strokeWidth=1;" parent="1" vertex="1">
          <mxGeometry x="1597" y="1679" width="498" height="423" as="geometry" />
        </mxCell>
        <mxCell id="node6" value="&lt;p style=&quot;margin:0px;margin-top:4px;text-align:center;&quot;&gt;&lt;i&gt;&amp;lt;&amp;lt;interface&amp;gt;&amp;gt;&lt;/i&gt;&lt;br/&gt;&lt;b&gt;PersonsApi&lt;/b&gt;&lt;/p&gt;&lt;hr size=&quot;1&quot;/&gt;&lt;p style=&quot;margin:0 0 0 4px;line-height:1.6;&quot;&gt;+ apiV1PersonsIdGet(Long): ResponseEntity&amp;lt;PersonResponse&amp;gt;&lt;br/&gt;+ apiV1PersonsPost(PersonAddRequest): ResponseEntity&amp;lt;PersonResponse&amp;gt;&lt;br/&gt;+ apiV1PersonsByIdsGet(List&amp;lt;Long&amp;gt;): ResponseEntity&amp;lt;List&amp;lt;PersonResponse&amp;gt;&amp;gt;&lt;br/&gt;+ apiV1PersonsDelete(List&amp;lt;Long&amp;gt;): ResponseEntity&amp;lt;Void&amp;gt;&lt;br/&gt;+ apiV1PersonsGet(Integer?, Integer?, String?, String?, String?): ResponseEntity&amp;lt;PagedModel&amp;gt;&lt;br/&gt;+ apiV1PersonsIdDelete(Long): ResponseEntity&amp;lt;PersonResponse&amp;gt;&lt;br/&gt;+ apiV1PersonsIdPatch(Long, PersonUpdateRequest): ResponseEntity&amp;lt;PersonResponse&amp;gt;&lt;br/&gt;+ apiV1PersonsPatch(List&amp;lt;Long&amp;gt;, PersonUpdateRequest): ResponseEntity&amp;lt;List&amp;lt;PersonResponse&amp;gt;&amp;gt;&lt;/p&gt;" style="verticalAlign=top;align=left;overflow=fill;fontSize=14;fontFamily=Helvetica;html=1;rounded=0;shadow=0;comic=0;labelBackgroundColor=none;strokeWidth=1;" parent="1" vertex="1">
          <mxGeometry x="1520" y="2615" width="652" height="231" as="geometry" />
        </mxCell>
        <mxCell id="nsfBi5rtqrezfrw0eVku-1" style="edgeStyle=orthogonalEdgeStyle;rounded=0;orthogonalLoop=1;jettySize=auto;html=1;exitX=0.25;exitY=0;exitDx=0;exitDy=0;" edge="1" parent="1" source="node2">
          <mxGeometry relative="1" as="geometry">
            <mxPoint x="5010" y="2550" as="targetPoint" />
          </mxGeometry>
        </mxCell>
        <mxCell id="node2" value="&lt;p style=&quot;margin:0px;margin-top:4px;text-align:center;&quot;&gt;&lt;i&gt;&amp;lt;&amp;lt;enumeration&amp;gt;&amp;gt;&lt;/i&gt;&lt;br/&gt;&lt;b&gt;Semester&lt;/b&gt;&lt;/p&gt;&lt;hr size=&quot;1&quot;/&gt;&lt;p style=&quot;margin:0 0 0 4px;line-height:1.6;&quot;&gt;+ values(): Semester[]&lt;br/&gt;+ valueOf(String): Semester&lt;/p&gt;" style="verticalAlign=top;align=left;overflow=fill;fontSize=14;fontFamily=Helvetica;html=1;rounded=0;shadow=0;comic=0;labelBackgroundColor=none;strokeWidth=1;" parent="1" vertex="1">
          <mxGeometry x="4810" y="2580" width="206" height="109" as="geometry" />
        </mxCell>
        <mxCell id="node24" value="&lt;p style=&quot;margin:0px;margin-top:4px;text-align:center;&quot;&gt;&lt;b&gt;StudyGroup&lt;/b&gt;&lt;/p&gt;&lt;hr size=&quot;1&quot;&gt;&lt;p style=&quot;margin:0 0 0 4px;line-height:1.6;&quot;&gt;&lt;/p&gt;&lt;p style=&quot;margin:0 0 0 4px;line-height:1.6;&quot;&gt; shouldBeExpelled: long&lt;br&gt; name: String&lt;br&gt; coordinates: Coordinates&lt;br&gt; expelledStudents: long&lt;br&gt; semesterEnum: Semester&lt;br&gt; id: Long&lt;br&gt; transferredStudents: long&lt;br&gt; averageMark: Integer&lt;br&gt; creationDate: LocalDateTime&lt;br&gt; groupAdmin: Person&lt;br&gt; studentsCount: Long&lt;br&gt; formOfEducation: FormOfEducation&lt;/p&gt;" style="verticalAlign=top;align=left;overflow=fill;fontSize=14;fontFamily=Helvetica;html=1;rounded=0;shadow=0;comic=0;labelBackgroundColor=none;strokeWidth=1;" parent="1" vertex="1">
          <mxGeometry x="4955" y="2873" width="265" height="337" as="geometry" />
        </mxCell>
        <mxCell id="node3" value="&lt;p style=&quot;margin:0px;margin-top:4px;text-align:center;&quot;&gt;&lt;b&gt;StudyGroupController&lt;/b&gt;&lt;/p&gt;&lt;hr size=&quot;1&quot;/&gt;&lt;p style=&quot;margin:0 0 0 4px;line-height:1.6;&quot;&gt;+ apiV1StudyGroupsStatsExpelledTotalGet(): ResponseEntity&amp;lt;StudyGroupExpelledTotalResponse&amp;gt;&lt;br/&gt;+ apiV1StudyGroupsByIdsGet(List&amp;lt;Long&amp;gt;): ResponseEntity&amp;lt;List&amp;lt;StudyGroupResponse&amp;gt;&amp;gt;&lt;br/&gt;+ apiV1StudyGroupsIdGet(Long): ResponseEntity&amp;lt;StudyGroupResponse&amp;gt;&lt;br/&gt;+ apiV1StudyGroupsGet(Integer, Integer, String, String, String): ResponseEntity&amp;lt;PagedModel&amp;gt;&lt;br/&gt;+ apiV1StudyGroupsBySemesterOneDelete(Semester): ResponseEntity&amp;lt;StudyGroupResponse&amp;gt;&lt;br/&gt;+ apiV1StudyGroupsPost(StudyGroupAddRequest): ResponseEntity&amp;lt;StudyGroupResponse&amp;gt;&lt;br/&gt;+ apiV1StudyGroupsPatch(List&amp;lt;Long&amp;gt;, StudyGroupUpdateRequest): ResponseEntity&amp;lt;List&amp;lt;StudyGroupResponse&amp;gt;&amp;gt;&lt;br/&gt;- resolveSortField(String, String): String&lt;br/&gt;+ apiV1StudyGroupsStatsShouldBeExpelledGet(): ResponseEntity&amp;lt;List&amp;lt;StudyGroupShouldBeExpelledGroupResponse&amp;gt;&amp;gt;&lt;br/&gt;+ apiV1StudyGroupsBySemesterDelete(Semester): ResponseEntity&amp;lt;Long&amp;gt;&lt;br/&gt;+ apiV1StudyGroupsDelete(List&amp;lt;Long&amp;gt;): ResponseEntity&amp;lt;Void&amp;gt;&lt;br/&gt;- resolveDirection(String): Direction&lt;br/&gt;+ apiV1StudyGroupsIdPatch(Long, StudyGroupUpdateRequest): ResponseEntity&amp;lt;StudyGroupResponse&amp;gt;&lt;br/&gt;- toPageable(Integer, Integer): Pageable&lt;br/&gt;+ apiV1StudyGroupsIdDelete(Long): ResponseEntity&amp;lt;StudyGroupResponse&amp;gt;&lt;/p&gt;" style="verticalAlign=top;align=left;overflow=fill;fontSize=14;fontFamily=Helvetica;html=1;rounded=0;shadow=0;comic=0;labelBackgroundColor=none;strokeWidth=1;" parent="1" vertex="1">
          <mxGeometry x="-140" y="1000" width="776" height="399" as="geometry" />
        </mxCell>
        <mxCell id="node39" value="&lt;p style=&quot;margin:0px;margin-top:4px;text-align:center;&quot;&gt;&lt;b&gt;StudyGroupMapperImpl&lt;/b&gt;&lt;/p&gt;&lt;hr size=&quot;1&quot;/&gt;&lt;p style=&quot;margin:0 0 0 4px;line-height:1.6;&quot;&gt;+ toEntity(StudyGroupResponse): StudyGroup&lt;br/&gt;+ toStudyGroupResponse(StudyGroup): StudyGroupResponse&lt;/p&gt;" style="verticalAlign=top;align=left;overflow=fill;fontSize=14;fontFamily=Helvetica;html=1;rounded=0;shadow=0;comic=0;labelBackgroundColor=none;strokeWidth=1;" parent="1" vertex="1">
          <mxGeometry x="1638" y="227" width="417" height="94" as="geometry" />
        </mxCell>
        <mxCell id="node10" value="&lt;p style=&quot;margin:0px;margin-top:4px;text-align:center;&quot;&gt;&lt;i&gt;&amp;lt;&amp;lt;interface&amp;gt;&amp;gt;&lt;/i&gt;&lt;br/&gt;&lt;b&gt;StudyGroupRepository&lt;/b&gt;&lt;/p&gt;&lt;hr size=&quot;1&quot;/&gt;&lt;p style=&quot;margin:0 0 0 4px;line-height:1.6;&quot;&gt;+ countGroupedByShouldBeExpelled(): List&amp;lt;ShouldBeExpelledGroupProjection&amp;gt;&lt;br/&gt;+ findAllBySemesterEnum(Semester): List&amp;lt;StudyGroup&amp;gt;&lt;br/&gt;+ existsByCoordinatesId(Long): boolean&lt;br/&gt;+ findFirstBySemesterEnum(Semester): Optional&amp;lt;StudyGroup&amp;gt;&lt;br/&gt;+ sumExpelledStudents(): Long&lt;/p&gt;" style="verticalAlign=top;align=left;overflow=fill;fontSize=14;fontFamily=Helvetica;html=1;rounded=0;shadow=0;comic=0;labelBackgroundColor=none;strokeWidth=1;" parent="1" vertex="1">
          <mxGeometry x="3963" y="1071" width="527" height="159" as="geometry" />
        </mxCell>
        <mxCell id="node8" value="&lt;p style=&quot;margin:0px;margin-top:4px;text-align:center;&quot;&gt;&lt;b&gt;StudyGroupService&lt;/b&gt;&lt;/p&gt;&lt;hr size=&quot;1&quot;/&gt;&lt;p style=&quot;margin:0 0 0 4px;line-height:1.6;&quot;&gt;- validateCoordinatesInput(Long, CoordinatesAddRequest): void&lt;br/&gt;+ deleteOneBySemester(Semester): StudyGroupResponse&lt;br/&gt;+ update(Long, StudyGroupUpdateRequest): StudyGroupResponse&lt;br/&gt;+ delete(Long): StudyGroupResponse&lt;br/&gt;- applyUpdates(StudyGroup, StudyGroupUpdateRequest): void&lt;br/&gt;- resolveLocationForPerson(Long, LocationAddRequest): Location&lt;br/&gt;+ totalExpelledStudents(): StudyGroupExpelledTotalResponse&lt;br/&gt;- buildPersonEntity(PersonAddRequest): Person&lt;br/&gt;- resolveExistingPerson(Long): Person&lt;br/&gt;- resolveExistingCoordinates(Long): Coordinates&lt;br/&gt;- applyUpdates(StudyGroup, StudyGroupUpdateRequest, Coordinates, Person): void&lt;br/&gt;- validateAllIdsPresent(List&amp;lt;Long&amp;gt;, Collection&amp;lt;StudyGroup&amp;gt;): void&lt;br/&gt;+ groupByShouldBeExpelled(): List&amp;lt;StudyGroupShouldBeExpelledGroupResponse&amp;gt;&lt;br/&gt;- validateUpdateRequest(StudyGroupUpdateRequest): void&lt;br/&gt;+ create(StudyGroupAddRequest): StudyGroupResponse&lt;br/&gt;+ updateMany(List&amp;lt;Long&amp;gt;, StudyGroupUpdateRequest): List&amp;lt;StudyGroupResponse&amp;gt;&lt;br/&gt;+ deleteAllBySemester(Semester): long&lt;br/&gt;- resolveGroupAdminForCreate(Long, PersonAddRequest): Person&lt;br/&gt;- applySorting(Pageable, String, Direction): Pageable&lt;br/&gt;+ getByIds(List&amp;lt;Long&amp;gt;): List&amp;lt;StudyGroupResponse&amp;gt;&lt;br/&gt;+ getAll(Pageable, String, Direction): Page&amp;lt;StudyGroupResponse&amp;gt;&lt;br/&gt;- validateGroupAdminInput(Long, PersonAddRequest, boolean): void&lt;br/&gt;+ deleteMany(List&amp;lt;Long&amp;gt;): void&lt;br/&gt;- resolveCoordinatesForCreate(Long, CoordinatesAddRequest): Coordinates&lt;br/&gt;+ getById(Long): StudyGroupResponse&lt;br/&gt;- validatePersonLocationInput(Long, LocationAddRequest): void&lt;/p&gt;" style="verticalAlign=top;align=left;overflow=fill;fontSize=14;fontFamily=Helvetica;html=1;rounded=0;shadow=0;comic=0;labelBackgroundColor=none;strokeWidth=1;" parent="1" vertex="1">
          <mxGeometry x="1600" y="688" width="560" height="663" as="geometry" />
        </mxCell>
        <mxCell id="node41" value="&lt;p style=&quot;margin:0px;margin-top:4px;text-align:center;&quot;&gt;&lt;b&gt;StudyGroupServiceTest&lt;/b&gt;&lt;/p&gt;&lt;hr size=&quot;1&quot;/&gt;&lt;p style=&quot;margin:0 0 0 4px;line-height:1.6;&quot;&gt;- buildGroup(Long, String, Semester, Coordinates): StudyGroup&lt;br/&gt;~ create_throwsWhenCoordinatesMissing(): void&lt;br/&gt;- toResponse(StudyGroup): StudyGroupResponse&lt;br/&gt;~ totalExpelledStudents_returnsZeroWhenRepositoryReturnsNull(): void&lt;br/&gt;~ create_throwsWhenBothCoordinateSourcesProvided(): void&lt;br/&gt;~ deleteOneBySemester_throwsWhenNothingFound(): void&lt;br/&gt;~ deleteAllBySemester_throwsWhenNothingFound(): void&lt;br/&gt;~ groupByShouldBeExpelled_mapsProjection(): void&lt;br/&gt;~ deleteAllBySemester_removesGroupsAndUnusedCoordinates(): void&lt;br/&gt;~ deleteOneBySemester_doesNotRemoveCoordinateIfStillUsed(): void&lt;br/&gt;~ deleteOneBySemester_removesCoordinateWhenUnused(): void&lt;br/&gt;~ totalExpelledStudents_delegatesToRepository(): void&lt;br/&gt;~ deleteAllBySemester_requiresSemester(): void&lt;/p&gt;" style="verticalAlign=top;align=left;overflow=fill;fontSize=14;fontFamily=Helvetica;html=1;rounded=0;shadow=0;comic=0;labelBackgroundColor=none;strokeWidth=1;" parent="1" vertex="1">
          <mxGeometry x="748.5" y="620" width="475" height="351" as="geometry" />
        </mxCell>
        <mxCell id="node1" value="&lt;p style=&quot;margin:0px;margin-top:4px;text-align:center;&quot;&gt;&lt;i&gt;&amp;lt;&amp;lt;interface&amp;gt;&amp;gt;&lt;/i&gt;&lt;br/&gt;&lt;b&gt;StudyGroupsApi&lt;/b&gt;&lt;/p&gt;&lt;hr size=&quot;1&quot;/&gt;&lt;p style=&quot;margin:0 0 0 4px;line-height:1.6;&quot;&gt;+ apiV1StudyGroupsPost(StudyGroupAddRequest): ResponseEntity&amp;lt;StudyGroupResponse&amp;gt;&lt;br/&gt;+ apiV1StudyGroupsGet(Integer?, Integer?, String?, String?, String?): ResponseEntity&amp;lt;PagedStudyGroupResponse&amp;gt;&lt;br/&gt;+ apiV1StudyGroupsByIdsGet(List&amp;lt;Long&amp;gt;): ResponseEntity&amp;lt;List&amp;lt;StudyGroupResponse&amp;gt;&amp;gt;&lt;br/&gt;+ apiV1StudyGroupsDelete(List&amp;lt;Long&amp;gt;): ResponseEntity&amp;lt;Void&amp;gt;&lt;br/&gt;+ apiV1StudyGroupsIdGet(Long): ResponseEntity&amp;lt;StudyGroupResponse&amp;gt;&lt;br/&gt;+ apiV1StudyGroupsStatsShouldBeExpelledGet(): ResponseEntity&amp;lt;List&amp;lt;StudyGroupShouldBeExpelledGroupResponse&amp;gt;&amp;gt;&lt;br/&gt;+ apiV1StudyGroupsBySemesterOneDelete(Semester): ResponseEntity&amp;lt;StudyGroupResponse&amp;gt;&lt;br/&gt;+ apiV1StudyGroupsStatsExpelledTotalGet(): ResponseEntity&amp;lt;StudyGroupExpelledTotalResponse&amp;gt;&lt;br/&gt;+ apiV1StudyGroupsPatch(List&amp;lt;Long&amp;gt;, StudyGroupUpdateRequest): ResponseEntity&amp;lt;List&amp;lt;StudyGroupResponse&amp;gt;&amp;gt;&lt;br/&gt;+ apiV1StudyGroupsIdPatch(Long, StudyGroupUpdateRequest): ResponseEntity&amp;lt;StudyGroupResponse&amp;gt;&lt;br/&gt;+ apiV1StudyGroupsBySemesterDelete(Semester): ResponseEntity&amp;lt;Long&amp;gt;&lt;br/&gt;+ apiV1StudyGroupsIdDelete(Long): ResponseEntity&amp;lt;StudyGroupResponse&amp;gt;&lt;/p&gt;" style="verticalAlign=top;align=left;overflow=fill;fontSize=14;fontFamily=Helvetica;html=1;rounded=0;shadow=0;comic=0;labelBackgroundColor=none;strokeWidth=1;" parent="1" vertex="1">
          <mxGeometry x="598" y="-13" width="776" height="327" as="geometry" />
        </mxCell>
        <mxCell id="node28" value="&lt;p style=&quot;margin:0px;margin-top:4px;text-align:center;&quot;&gt;&lt;b&gt;WebSocketConfig&lt;/b&gt;&lt;/p&gt;&lt;hr size=&quot;1&quot;/&gt;&lt;p style=&quot;margin:0 0 0 4px;line-height:1.6;&quot;&gt;+ registerWebSocketHandlers(WebSocketHandlerRegistry): void&lt;/p&gt;" style="verticalAlign=top;align=left;overflow=fill;fontSize=14;fontFamily=Helvetica;html=1;rounded=0;shadow=0;comic=0;labelBackgroundColor=none;strokeWidth=1;" parent="1" vertex="1">
          <mxGeometry x="770" y="2099" width="432" height="68" as="geometry" />
        </mxCell>
        <mxCell id="edge13" value="" style="html=1;rounded=1;edgeStyle=orthogonalEdgeStyle;dashed=0;startArrow=diamondThinstartSize=12;endArrow=openThin;endSize=12;strokeColor=#595959;exitX=1.000;exitY=0.250;exitDx=0;exitDy=0;entryX=1.000;entryY=0.500;entryDx=0;entryDy=0;" parent="1" source="node13" target="node32" edge="1">
          <mxGeometry width="50" height="50" relative="1" as="geometry">
            <Array as="points">
              <mxPoint x="1406" y="2494" />
              <mxPoint x="1406" y="2870" />
              <mxPoint x="3046" y="2870" />
              <mxPoint x="3046" y="1650" />
            </Array>
          </mxGeometry>
        </mxCell>
        <mxCell id="label78" value="1" style="edgeLabel;resizable=0;html=1;align=left;verticalAlign=top;strokeColor=default;" parent="edge13" vertex="1" connectable="0">
          <mxGeometry x="1376" y="2476" as="geometry" />
        </mxCell>
        <mxCell id="label82" value="1" style="edgeLabel;resizable=0;html=1;align=left;verticalAlign=top;strokeColor=default;" parent="edge13" vertex="1" connectable="0">
          <mxGeometry x="3034" y="1844" as="geometry" />
        </mxCell>
        <mxCell id="label83" value="coordinatesService" style="edgeLabel;resizable=0;html=1;align=left;verticalAlign=top;strokeColor=default;" parent="edge13" vertex="1" connectable="0">
          <mxGeometry x="2921" y="1650" as="geometry" />
        </mxCell>
        <mxCell id="edge17" value="" style="html=1;rounded=1;edgeStyle=orthogonalEdgeStyle;dashed=0;startArrow=diamondThinstartSize=12;endArrow=openThin;endSize=12;strokeColor=#595959;exitX=1.000;exitY=0.500;exitDx=0;exitDy=0;entryX=0.000;entryY=0.500;entryDx=0;entryDy=0;" parent="1" source="node32" target="node33" edge="1">
          <mxGeometry width="50" height="50" relative="1" as="geometry">
            <Array as="points">
              <mxPoint x="3026" y="1650" />
              <mxPoint x="3026" y="830" />
              <mxPoint x="3446" y="830" />
              <mxPoint x="3446" y="1290" />
            </Array>
          </mxGeometry>
        </mxCell>
        <mxCell id="label102" value="1" style="edgeLabel;resizable=0;html=1;align=left;verticalAlign=top;strokeColor=default;" parent="edge17" vertex="1" connectable="0">
          <mxGeometry x="2941" y="1632" as="geometry" />
        </mxCell>
        <mxCell id="label106" value="1" style="edgeLabel;resizable=0;html=1;align=left;verticalAlign=top;strokeColor=default;" parent="edge17" vertex="1" connectable="0">
          <mxGeometry x="3995" y="1272" as="geometry" />
        </mxCell>
        <mxCell id="label107" value="coordinatesRepository" style="edgeLabel;resizable=0;html=1;align=left;verticalAlign=top;strokeColor=default;" parent="edge17" vertex="1" connectable="0">
          <mxGeometry x="3713" y="1290" as="geometry" />
        </mxCell>
        <mxCell id="edge34" value="" style="html=1;rounded=1;edgeStyle=orthogonalEdgeStyle;dashed=0;startArrow=diamondThinstartSize=12;endArrow=openThin;endSize=12;strokeColor=#595959;exitX=1.000;exitY=0.500;exitDx=0;exitDy=0;entryX=0.000;entryY=0.500;entryDx=0;entryDy=0;" parent="1" source="node32" target="node55" edge="1">
          <mxGeometry width="50" height="50" relative="1" as="geometry">
            <Array as="points">
              <mxPoint x="3026" y="1650" />
              <mxPoint x="3026" y="830" />
              <mxPoint x="3306" y="830" />
              <mxPoint x="3306" y="2070" />
            </Array>
          </mxGeometry>
        </mxCell>
        <mxCell id="label204" value="1" style="edgeLabel;resizable=0;html=1;align=left;verticalAlign=top;strokeColor=default;" parent="edge34" vertex="1" connectable="0">
          <mxGeometry x="3014" y="1368" as="geometry" />
        </mxCell>
        <mxCell id="label208" value="1" style="edgeLabel;resizable=0;html=1;align=left;verticalAlign=top;strokeColor=default;" parent="edge34" vertex="1" connectable="0">
          <mxGeometry x="3294" y="1648" as="geometry" />
        </mxCell>
        <mxCell id="label209" value="entityChangeNotifier" style="edgeLabel;resizable=0;html=1;align=left;verticalAlign=top;strokeColor=default;" parent="edge34" vertex="1" connectable="0">
          <mxGeometry x="3306" y="1854" as="geometry" />
        </mxCell>
        <mxCell id="edge39" value="" style="html=1;rounded=1;edgeStyle=orthogonalEdgeStyle;dashed=0;startArrow=diamondThinstartSize=12;endArrow=openThin;endSize=12;strokeColor=#595959;exitX=1.000;exitY=0.500;exitDx=0;exitDy=0;entryX=0.000;entryY=0.500;entryDx=0;entryDy=0;" parent="1" source="node17" target="node55" edge="1">
          <mxGeometry width="50" height="50" relative="1" as="geometry">
            <Array as="points">
              <mxPoint x="3066" y="2270" />
              <mxPoint x="3066" y="2070" />
            </Array>
          </mxGeometry>
        </mxCell>
        <mxCell id="label234" value="1" style="edgeLabel;resizable=0;html=1;align=left;verticalAlign=top;strokeColor=default;" parent="edge39" vertex="1" connectable="0">
          <mxGeometry x="2156" y="2252" as="geometry" />
        </mxCell>
        <mxCell id="label238" value="1" style="edgeLabel;resizable=0;html=1;align=left;verticalAlign=top;strokeColor=default;" parent="edge39" vertex="1" connectable="0">
          <mxGeometry x="3389" y="2052" as="geometry" />
        </mxCell>
        <mxCell id="label239" value="entityChangeNotifier" style="edgeLabel;resizable=0;html=1;align=left;verticalAlign=top;strokeColor=default;" parent="edge39" vertex="1" connectable="0">
          <mxGeometry x="3066" y="2101" as="geometry" />
        </mxCell>
        <mxCell id="edge26" value="" style="html=1;rounded=1;edgeStyle=orthogonalEdgeStyle;dashed=0;startArrow=diamondThinstartSize=12;endArrow=openThin;endSize=12;strokeColor=#595959;exitX=1.000;exitY=0.750;exitDx=0;exitDy=0;entryX=1.000;entryY=0.500;entryDx=0;entryDy=0;" parent="1" source="node35" target="node38" edge="1">
          <mxGeometry width="50" height="50" relative="1" as="geometry">
            <Array as="points">
              <mxPoint x="1386" y="1686" />
              <mxPoint x="1386" y="2130" />
              <mxPoint x="2926" y="2130" />
              <mxPoint x="2926" y="2550" />
            </Array>
          </mxGeometry>
        </mxCell>
        <mxCell id="label156" value="1" style="edgeLabel;resizable=0;html=1;align=left;verticalAlign=top;strokeColor=default;" parent="edge26" vertex="1" connectable="0">
          <mxGeometry x="532" y="1668" as="geometry" />
        </mxCell>
        <mxCell id="label160" value="1" style="edgeLabel;resizable=0;html=1;align=left;verticalAlign=top;strokeColor=default;" parent="edge26" vertex="1" connectable="0">
          <mxGeometry x="2914" y="2401" as="geometry" />
        </mxCell>
        <mxCell id="label161" value="locationService" style="edgeLabel;resizable=0;html=1;align=left;verticalAlign=top;strokeColor=default;" parent="edge26" vertex="1" connectable="0">
          <mxGeometry x="2926" y="2401" as="geometry" />
        </mxCell>
        <mxCell id="edge27" value="" style="html=1;rounded=1;edgeStyle=orthogonalEdgeStyle;dashed=0;startArrow=diamondThinstartSize=12;endArrow=openThin;endSize=12;strokeColor=#595959;exitX=1.000;exitY=0.500;exitDx=0;exitDy=0;entryX=0.000;entryY=0.500;entryDx=0;entryDy=0;" parent="1" source="node38" target="node55" edge="1">
          <mxGeometry width="50" height="50" relative="1" as="geometry">
            <Array as="points">
              <mxPoint x="2906" y="2550" />
              <mxPoint x="2906" y="2450" />
              <mxPoint x="3106" y="2450" />
              <mxPoint x="3106" y="2070" />
            </Array>
          </mxGeometry>
        </mxCell>
        <mxCell id="label162" value="1" style="edgeLabel;resizable=0;html=1;align=left;verticalAlign=top;strokeColor=default;" parent="edge27" vertex="1" connectable="0">
          <mxGeometry x="2967" y="2432" as="geometry" />
        </mxCell>
        <mxCell id="label166" value="1" style="edgeLabel;resizable=0;html=1;align=left;verticalAlign=top;strokeColor=default;" parent="edge27" vertex="1" connectable="0">
          <mxGeometry x="3459" y="2052" as="geometry" />
        </mxCell>
        <mxCell id="label167" value="entityChangeNotifier" style="edgeLabel;resizable=0;html=1;align=left;verticalAlign=top;strokeColor=default;" parent="edge27" vertex="1" connectable="0">
          <mxGeometry x="3106" y="2188" as="geometry" />
        </mxCell>
        <mxCell id="edge31" value="" style="html=1;rounded=1;edgeStyle=orthogonalEdgeStyle;dashed=0;startArrow=diamondThinstartSize=12;endArrow=openThin;endSize=12;strokeColor=#595959;exitX=1.000;exitY=0.500;exitDx=0;exitDy=0;entryX=0.000;entryY=0.250;entryDx=0;entryDy=0;" parent="1" source="node38" target="node56" edge="1">
          <mxGeometry width="50" height="50" relative="1" as="geometry">
            <Array as="points">
              <mxPoint x="2906" y="2550" />
              <mxPoint x="2906" y="2450" />
              <mxPoint x="3986" y="2450" />
              <mxPoint x="3986" y="2458" />
            </Array>
          </mxGeometry>
        </mxCell>
        <mxCell id="label186" value="1" style="edgeLabel;resizable=0;html=1;align=left;verticalAlign=top;strokeColor=default;" parent="edge31" vertex="1" connectable="0">
          <mxGeometry x="2890" y="2492" as="geometry" />
        </mxCell>
        <mxCell id="label190" value="1" style="edgeLabel;resizable=0;html=1;align=left;verticalAlign=top;strokeColor=default;" parent="edge31" vertex="1" connectable="0">
          <mxGeometry x="3800" y="2432" as="geometry" />
        </mxCell>
        <mxCell id="label191" value="locationMapper" style="edgeLabel;resizable=0;html=1;align=left;verticalAlign=top;strokeColor=default;" parent="edge31" vertex="1" connectable="0">
          <mxGeometry x="3580" y="2450" as="geometry" />
        </mxCell>
        <mxCell id="edge52" value="" style="html=1;rounded=1;edgeStyle=orthogonalEdgeStyle;dashed=0;startArrow=diamondThinstartSize=12;endArrow=openThin;endSize=12;strokeColor=#595959;exitX=1.000;exitY=0.500;exitDx=0;exitDy=0;entryX=0.000;entryY=0.500;entryDx=0;entryDy=0;" parent="1" source="node38" target="node42" edge="1">
          <mxGeometry width="50" height="50" relative="1" as="geometry">
            <Array as="points">
              <mxPoint x="2906" y="2550" />
              <mxPoint x="2906" y="2450" />
              <mxPoint x="3126" y="2450" />
              <mxPoint x="3126" y="2170" />
            </Array>
          </mxGeometry>
        </mxCell>
        <mxCell id="label312" value="1" style="edgeLabel;resizable=0;html=1;align=left;verticalAlign=top;strokeColor=default;" parent="edge52" vertex="1" connectable="0">
          <mxGeometry x="2937" y="2432" as="geometry" />
        </mxCell>
        <mxCell id="label316" value="1" style="edgeLabel;resizable=0;html=1;align=left;verticalAlign=top;strokeColor=default;" parent="edge52" vertex="1" connectable="0">
          <mxGeometry x="4110" y="2152" as="geometry" />
        </mxCell>
        <mxCell id="label317" value="locationRepository" style="edgeLabel;resizable=0;html=1;align=left;verticalAlign=top;strokeColor=default;" parent="edge52" vertex="1" connectable="0">
          <mxGeometry x="4072" y="2170" as="geometry" />
        </mxCell>
        <mxCell id="edge32" value="" style="html=1;rounded=1;edgeStyle=orthogonalEdgeStyle;dashed=0;startArrow=diamondThinstartSize=12;endArrow=openThin;endSize=12;strokeColor=#595959;exitX=1.000;exitY=0.500;exitDx=0;exitDy=0;entryX=0.000;entryY=0.500;entryDx=0;entryDy=0;" parent="1" source="node18" target="node26" edge="1">
          <mxGeometry width="50" height="50" relative="1" as="geometry">
            <Array as="points">
              <mxPoint x="5666" y="2990" />
              <mxPoint x="5666" y="2930" />
            </Array>
          </mxGeometry>
        </mxCell>
        <mxCell id="label192" value="1" style="edgeLabel;resizable=0;html=1;align=left;verticalAlign=top;strokeColor=default;" parent="edge32" vertex="1" connectable="0">
          <mxGeometry x="5691" y="2912" as="geometry" />
        </mxCell>
        <mxCell id="label196" value="1" style="edgeLabel;resizable=0;html=1;align=left;verticalAlign=top;strokeColor=default;" parent="edge32" vertex="1" connectable="0">
          <mxGeometry x="5959" y="2912" as="geometry" />
        </mxCell>
        <mxCell id="label197" value="eyeColor" style="edgeLabel;resizable=0;html=1;align=left;verticalAlign=top;strokeColor=default;" parent="edge32" vertex="1" connectable="0">
          <mxGeometry x="5917" y="2930" as="geometry" />
        </mxCell>
        <mxCell id="edge23" value="" style="html=1;rounded=1;edgeStyle=orthogonalEdgeStyle;dashed=0;startArrow=diamondThinstartSize=12;endArrow=openThin;endSize=12;strokeColor=#595959;exitX=1.000;exitY=0.500;exitDx=0;exitDy=0;entryX=0.000;entryY=0.500;entryDx=0;entryDy=0;" parent="1" source="node18" target="node7" edge="1">
          <mxGeometry width="50" height="50" relative="1" as="geometry">
            <Array as="points" />
          </mxGeometry>
        </mxCell>
        <mxCell id="label138" value="1" style="edgeLabel;resizable=0;html=1;align=left;verticalAlign=top;strokeColor=default;" parent="edge23" vertex="1" connectable="0">
          <mxGeometry x="5679" y="2972" as="geometry" />
        </mxCell>
        <mxCell id="label142" value="1" style="edgeLabel;resizable=0;html=1;align=left;verticalAlign=top;strokeColor=default;" parent="edge23" vertex="1" connectable="0">
          <mxGeometry x="5729" y="2972" as="geometry" />
        </mxCell>
        <mxCell id="label143" value="nationality" style="edgeLabel;resizable=0;html=1;align=left;verticalAlign=top;strokeColor=default;" parent="edge23" vertex="1" connectable="0">
          <mxGeometry x="5681" y="2990" as="geometry" />
        </mxCell>
        <mxCell id="edge38" value="" style="html=1;rounded=1;edgeStyle=orthogonalEdgeStyle;dashed=0;startArrow=diamondThinstartSize=12;endArrow=openThin;endSize=12;strokeColor=#595959;exitX=1.000;exitY=0.500;exitDx=0;exitDy=0;entryX=0.000;entryY=0.500;entryDx=0;entryDy=0;" parent="1" source="node18" target="node34" edge="1">
          <mxGeometry width="50" height="50" relative="1" as="geometry">
            <Array as="points">
              <mxPoint x="5666" y="2990" />
              <mxPoint x="5666" y="2750" />
            </Array>
          </mxGeometry>
        </mxCell>
        <mxCell id="label228" value="1" style="edgeLabel;resizable=0;html=1;align=left;verticalAlign=top;strokeColor=default;" parent="edge38" vertex="1" connectable="0">
          <mxGeometry x="5654" y="2789" as="geometry" />
        </mxCell>
        <mxCell id="label232" value="1" style="edgeLabel;resizable=0;html=1;align=left;verticalAlign=top;strokeColor=default;" parent="edge38" vertex="1" connectable="0">
          <mxGeometry x="5726" y="2732" as="geometry" />
        </mxCell>
        <mxCell id="label233" value="location" style="edgeLabel;resizable=0;html=1;align=left;verticalAlign=top;strokeColor=default;" parent="edge38" vertex="1" connectable="0">
          <mxGeometry x="5693" y="2750" as="geometry" />
        </mxCell>
        <mxCell id="edge14" value="" style="html=1;rounded=1;edgeStyle=orthogonalEdgeStyle;dashed=0;startArrow=diamondThinstartSize=12;endArrow=openThin;endSize=12;strokeColor=#595959;exitX=1.000;exitY=0.250;exitDx=0;exitDy=0;entryX=1.000;entryY=0.500;entryDx=0;entryDy=0;" parent="1" source="node29" target="node47" edge="1">
          <mxGeometry width="50" height="50" relative="1" as="geometry">
            <Array as="points">
              <mxPoint x="546" y="2234" />
              <mxPoint x="546" y="2370" />
              <mxPoint x="2126" y="2370" />
              <mxPoint x="2126" y="1890" />
            </Array>
          </mxGeometry>
        </mxCell>
        <mxCell id="label84" value="1" style="edgeLabel;resizable=0;html=1;align=left;verticalAlign=top;strokeColor=default;" parent="edge14" vertex="1" connectable="0">
          <mxGeometry x="523" y="2216" as="geometry" />
        </mxCell>
        <mxCell id="label88" value="1" style="edgeLabel;resizable=0;html=1;align=left;verticalAlign=top;strokeColor=default;" parent="edge14" vertex="1" connectable="0">
          <mxGeometry x="2114" y="1961" as="geometry" />
        </mxCell>
        <mxCell id="label89" value="personService" style="edgeLabel;resizable=0;html=1;align=left;verticalAlign=top;strokeColor=default;" parent="edge14" vertex="1" connectable="0">
          <mxGeometry x="2126" y="1961" as="geometry" />
        </mxCell>
        <mxCell id="edge0" value="" style="html=1;rounded=1;edgeStyle=orthogonalEdgeStyle;dashed=1;startArrow=none;endArrow=block;endSize=12;strokeColor=#008200;exitX=1.000;exitY=0.750;exitDx=0;exitDy=0;entryX=0.000;entryY=0.500;entryDx=0;entryDy=0;" parent="1" source="node29" target="node6" edge="1">
          <mxGeometry width="50" height="50" relative="1" as="geometry">
            <Array as="points">
              <mxPoint x="1426" y="2386" />
              <mxPoint x="1426" y="2730" />
            </Array>
          </mxGeometry>
        </mxCell>
        <mxCell id="edge35" value="" style="html=1;rounded=1;edgeStyle=orthogonalEdgeStyle;dashed=0;startArrow=diamondThinstartSize=12;endArrow=openThin;endSize=12;strokeColor=#595959;exitX=1.000;exitY=0.167;exitDx=0;exitDy=0;entryX=0.000;entryY=0.250;entryDx=0;entryDy=0;" parent="1" source="node27" target="node56" edge="1">
          <mxGeometry width="50" height="50" relative="1" as="geometry">
            <Array as="points">
              <mxPoint x="3146" y="2901" />
              <mxPoint x="3146" y="2450" />
              <mxPoint x="3986" y="2450" />
              <mxPoint x="3986" y="2458" />
            </Array>
          </mxGeometry>
        </mxCell>
        <mxCell id="label210" value="1" style="edgeLabel;resizable=0;html=1;align=left;verticalAlign=top;strokeColor=default;" parent="edge35" vertex="1" connectable="0">
          <mxGeometry x="2014" y="2883" as="geometry" />
        </mxCell>
        <mxCell id="label214" value="1" style="edgeLabel;resizable=0;html=1;align=left;verticalAlign=top;strokeColor=default;" parent="edge35" vertex="1" connectable="0">
          <mxGeometry x="3980" y="2440" as="geometry" />
        </mxCell>
        <mxCell id="label215" value="locationMapper" style="edgeLabel;resizable=0;html=1;align=left;verticalAlign=top;strokeColor=default;" parent="edge35" vertex="1" connectable="0">
          <mxGeometry x="3940" y="2490" as="geometry" />
        </mxCell>
        <mxCell id="edge1" value="" style="html=1;rounded=1;edgeStyle=orthogonalEdgeStyle;dashed=1;startArrow=none;endArrow=block;endSize=12;strokeColor=#008200;exitX=1.000;exitY=0.500;exitDx=0;exitDy=0;entryX=0.000;entryY=0.750;entryDx=0;entryDy=0;" parent="1" source="node27" target="node12" edge="1">
          <mxGeometry width="50" height="50" relative="1" as="geometry">
            <Array as="points">
              <mxPoint x="3086" y="2930" />
              <mxPoint x="3086" y="1932" />
            </Array>
          </mxGeometry>
        </mxCell>
        <mxCell id="edge19" value="" style="html=1;rounded=1;edgeStyle=orthogonalEdgeStyle;dashed=1;startArrow=none;endArrow=openThin;endSize=12;strokeColor=#595959;exitX=1.000;exitY=0.833;exitDx=0;exitDy=0;entryX=0.000;entryY=0.500;entryDx=0;entryDy=0;" parent="1" source="node27" target="node36" edge="1">
          <mxGeometry width="50" height="50" relative="1" as="geometry">
            <Array as="points">
              <mxPoint x="3166" y="2959" />
              <mxPoint x="3166" y="2710" />
            </Array>
          </mxGeometry>
        </mxCell>
        <mxCell id="label116" value="«create»" style="edgeLabel;resizable=0;html=1;align=left;verticalAlign=top;strokeColor=default;" parent="edge19" vertex="1" connectable="0">
          <mxGeometry x="3114" y="2925" as="geometry" />
        </mxCell>
        <mxCell id="edge15" value="" style="html=1;rounded=1;edgeStyle=orthogonalEdgeStyle;dashed=0;startArrow=diamondThinstartSize=12;endArrow=openThin;endSize=12;strokeColor=#595959;exitX=1.000;exitY=0.500;exitDx=0;exitDy=0;entryX=0.000;entryY=0.500;entryDx=0;entryDy=0;" parent="1" source="node47" target="node55" edge="1">
          <mxGeometry width="50" height="50" relative="1" as="geometry">
            <Array as="points">
              <mxPoint x="3226" y="1890" />
              <mxPoint x="3226" y="2070" />
            </Array>
          </mxGeometry>
        </mxCell>
        <mxCell id="label90" value="1" style="edgeLabel;resizable=0;html=1;align=left;verticalAlign=top;strokeColor=default;" parent="edge15" vertex="1" connectable="0">
          <mxGeometry x="2428" y="1872" as="geometry" />
        </mxCell>
        <mxCell id="label94" value="1" style="edgeLabel;resizable=0;html=1;align=left;verticalAlign=top;strokeColor=default;" parent="edge15" vertex="1" connectable="0">
          <mxGeometry x="3499" y="2052" as="geometry" />
        </mxCell>
        <mxCell id="label95" value="entityChangeNotifier" style="edgeLabel;resizable=0;html=1;align=left;verticalAlign=top;strokeColor=default;" parent="edge15" vertex="1" connectable="0">
          <mxGeometry x="3226" y="1993" as="geometry" />
        </mxCell>
        <mxCell id="edge18" value="" style="html=1;rounded=1;edgeStyle=orthogonalEdgeStyle;dashed=0;startArrow=diamondThinstartSize=12;endArrow=openThin;endSize=12;strokeColor=#595959;exitX=1.000;exitY=0.500;exitDx=0;exitDy=0;entryX=0.000;entryY=0.250;entryDx=0;entryDy=0;" parent="1" source="node47" target="node56" edge="1">
          <mxGeometry width="50" height="50" relative="1" as="geometry">
            <Array as="points">
              <mxPoint x="3166" y="1890" />
              <mxPoint x="3166" y="2450" />
              <mxPoint x="3986" y="2450" />
              <mxPoint x="3986" y="2458" />
            </Array>
          </mxGeometry>
        </mxCell>
        <mxCell id="label108" value="1" style="edgeLabel;resizable=0;html=1;align=left;verticalAlign=top;strokeColor=default;" parent="edge18" vertex="1" connectable="0">
          <mxGeometry x="2268" y="1872" as="geometry" />
        </mxCell>
        <mxCell id="label112" value="1" style="edgeLabel;resizable=0;html=1;align=left;verticalAlign=top;strokeColor=default;" parent="edge18" vertex="1" connectable="0">
          <mxGeometry x="3843" y="2432" as="geometry" />
        </mxCell>
        <mxCell id="label113" value="locationMapper" style="edgeLabel;resizable=0;html=1;align=left;verticalAlign=top;strokeColor=default;" parent="edge18" vertex="1" connectable="0">
          <mxGeometry x="3803" y="2450" as="geometry" />
        </mxCell>
        <mxCell id="edge12" value="" style="html=1;rounded=1;edgeStyle=orthogonalEdgeStyle;dashed=0;startArrow=diamondThinstartSize=12;endArrow=openThin;endSize=12;strokeColor=#595959;exitX=1.000;exitY=0.500;exitDx=0;exitDy=0;entryX=0.000;entryY=0.500;entryDx=0;entryDy=0;" parent="1" source="node47" target="node42" edge="1">
          <mxGeometry width="50" height="50" relative="1" as="geometry">
            <Array as="points">
              <mxPoint x="3186" y="1890" />
              <mxPoint x="3186" y="2170" />
            </Array>
          </mxGeometry>
        </mxCell>
        <mxCell id="label72" value="1" style="edgeLabel;resizable=0;html=1;align=left;verticalAlign=top;strokeColor=default;" parent="edge12" vertex="1" connectable="0">
          <mxGeometry x="2416" y="1872" as="geometry" />
        </mxCell>
        <mxCell id="label76" value="1" style="edgeLabel;resizable=0;html=1;align=left;verticalAlign=top;strokeColor=default;" parent="edge12" vertex="1" connectable="0">
          <mxGeometry x="4026" y="2152" as="geometry" />
        </mxCell>
        <mxCell id="label77" value="locationRepository" style="edgeLabel;resizable=0;html=1;align=left;verticalAlign=top;strokeColor=default;" parent="edge12" vertex="1" connectable="0">
          <mxGeometry x="3954" y="2170" as="geometry" />
        </mxCell>
        <mxCell id="edge28" value="" style="html=1;rounded=1;edgeStyle=orthogonalEdgeStyle;dashed=0;startArrow=diamondThinstartSize=12;endArrow=openThin;endSize=12;strokeColor=#595959;exitX=1.000;exitY=0.500;exitDx=0;exitDy=0;entryX=0.000;entryY=0.250;entryDx=0;entryDy=0;" parent="1" source="node47" target="node12" edge="1">
          <mxGeometry width="50" height="50" relative="1" as="geometry">
            <Array as="points">
              <mxPoint x="4026" y="1890" />
              <mxPoint x="4026" y="1888" />
            </Array>
          </mxGeometry>
        </mxCell>
        <mxCell id="label168" value="1" style="edgeLabel;resizable=0;html=1;align=left;verticalAlign=top;strokeColor=default;" parent="edge28" vertex="1" connectable="0">
          <mxGeometry x="2100" y="1872" as="geometry" />
        </mxCell>
        <mxCell id="label172" value="1" style="edgeLabel;resizable=0;html=1;align=left;verticalAlign=top;strokeColor=default;" parent="edge28" vertex="1" connectable="0">
          <mxGeometry x="4039" y="1870" as="geometry" />
        </mxCell>
        <mxCell id="label173" value="personMapper" style="edgeLabel;resizable=0;html=1;align=left;verticalAlign=top;strokeColor=default;" parent="edge28" vertex="1" connectable="0">
          <mxGeometry x="3788" y="1890" as="geometry" />
        </mxCell>
        <mxCell id="edge20" value="" style="html=1;rounded=1;edgeStyle=orthogonalEdgeStyle;dashed=0;startArrow=diamondThinstartSize=12;endArrow=openThin;endSize=12;strokeColor=#595959;exitX=1.000;exitY=0.500;exitDx=0;exitDy=0;entryX=0.000;entryY=0.500;entryDx=0;entryDy=0;" parent="1" source="node47" target="node23" edge="1">
          <mxGeometry width="50" height="50" relative="1" as="geometry">
            <Array as="points">
              <mxPoint x="3086" y="1890" />
              <mxPoint x="3086" y="1330" />
            </Array>
          </mxGeometry>
        </mxCell>
        <mxCell id="label120" value="1" style="edgeLabel;resizable=0;html=1;align=left;verticalAlign=top;strokeColor=default;" parent="edge20" vertex="1" connectable="0">
          <mxGeometry x="2188" y="1872" as="geometry" />
        </mxCell>
        <mxCell id="label124" value="1" style="edgeLabel;resizable=0;html=1;align=left;verticalAlign=top;strokeColor=default;" parent="edge20" vertex="1" connectable="0">
          <mxGeometry x="3572" y="1312" as="geometry" />
        </mxCell>
        <mxCell id="label125" value="personRepository" style="edgeLabel;resizable=0;html=1;align=left;verticalAlign=top;strokeColor=default;" parent="edge20" vertex="1" connectable="0">
          <mxGeometry x="3307" y="1330" as="geometry" />
        </mxCell>
        <mxCell id="edge44" value="" style="html=1;rounded=1;edgeStyle=orthogonalEdgeStyle;dashed=0;startArrow=diamondThinstartSize=12;endArrow=openThin;endSize=12;strokeColor=#595959;exitX=1.000;exitY=0.500;exitDx=0;exitDy=0;entryX=0.000;entryY=0.500;entryDx=0;entryDy=0;" parent="1" source="node24" target="node60" edge="1">
          <mxGeometry width="50" height="50" relative="1" as="geometry">
            <Array as="points">
              <mxPoint x="5046" y="3150" />
              <mxPoint x="5046" y="2670" />
            </Array>
          </mxGeometry>
        </mxCell>
        <mxCell id="label264" value="1" style="edgeLabel;resizable=0;html=1;align=left;verticalAlign=top;strokeColor=default;" parent="edge44" vertex="1" connectable="0">
          <mxGeometry x="4817" y="3132" as="geometry" />
        </mxCell>
        <mxCell id="label268" value="1" style="edgeLabel;resizable=0;html=1;align=left;verticalAlign=top;strokeColor=default;" parent="edge44" vertex="1" connectable="0">
          <mxGeometry x="5398" y="2652" as="geometry" />
        </mxCell>
        <mxCell id="label269" value="coordinates" style="edgeLabel;resizable=0;html=1;align=left;verticalAlign=top;strokeColor=default;" parent="edge44" vertex="1" connectable="0">
          <mxGeometry x="5339" y="2670" as="geometry" />
        </mxCell>
        <mxCell id="edge9" value="" style="html=1;rounded=1;edgeStyle=orthogonalEdgeStyle;dashed=0;startArrow=diamondThinstartSize=12;endArrow=openThin;endSize=12;strokeColor=#595959;exitX=1.000;exitY=0.500;exitDx=0;exitDy=0;entryX=0.000;entryY=0.500;entryDx=0;entryDy=0;" parent="1" source="node24" target="node52" edge="1">
          <mxGeometry width="50" height="50" relative="1" as="geometry">
            <Array as="points" />
          </mxGeometry>
        </mxCell>
        <mxCell id="label54" value="1" style="edgeLabel;resizable=0;html=1;align=left;verticalAlign=top;strokeColor=default;" parent="edge9" vertex="1" connectable="0">
          <mxGeometry x="4914" y="3132" as="geometry" />
        </mxCell>
        <mxCell id="label58" value="1" style="edgeLabel;resizable=0;html=1;align=left;verticalAlign=top;strokeColor=default;" parent="edge9" vertex="1" connectable="0">
          <mxGeometry x="5120" y="3132" as="geometry" />
        </mxCell>
        <mxCell id="label59" value="formOfEducation" style="edgeLabel;resizable=0;html=1;align=left;verticalAlign=top;strokeColor=default;" parent="edge9" vertex="1" connectable="0">
          <mxGeometry x="5034" y="3150" as="geometry" />
        </mxCell>
        <mxCell id="edge11" value="" style="html=1;rounded=1;edgeStyle=orthogonalEdgeStyle;dashed=0;startArrow=diamondThinstartSize=12;endArrow=openThin;endSize=12;strokeColor=#595959;exitX=1.000;exitY=0.500;exitDx=0;exitDy=0;entryX=1.000;entryY=0.500;entryDx=0;entryDy=0;" parent="1" source="node24" target="node18" edge="1">
          <mxGeometry width="50" height="50" relative="1" as="geometry">
            <Array as="points">
              <mxPoint x="5046" y="3150" />
              <mxPoint x="5046" y="2830" />
              <mxPoint x="5646" y="2830" />
              <mxPoint x="5646" y="2990" />
            </Array>
          </mxGeometry>
        </mxCell>
        <mxCell id="label66" value="1" style="edgeLabel;resizable=0;html=1;align=left;verticalAlign=top;strokeColor=default;" parent="edge11" vertex="1" connectable="0">
          <mxGeometry x="4834" y="3132" as="geometry" />
        </mxCell>
        <mxCell id="label70" value="1" style="edgeLabel;resizable=0;html=1;align=left;verticalAlign=top;strokeColor=default;" parent="edge11" vertex="1" connectable="0">
          <mxGeometry x="5440" y="2812" as="geometry" />
        </mxCell>
        <mxCell id="label71" value="groupAdmin" style="edgeLabel;resizable=0;html=1;align=left;verticalAlign=top;strokeColor=default;" parent="edge11" vertex="1" connectable="0">
          <mxGeometry x="5409" y="2830" as="geometry" />
        </mxCell>
        <mxCell id="edge43" value="" style="html=1;rounded=1;edgeStyle=orthogonalEdgeStyle;dashed=0;startArrow=diamondThinstartSize=12;endArrow=openThin;endSize=12;strokeColor=#595959;exitX=1.000;exitY=0.500;exitDx=0;exitDy=0;entryX=0.000;entryY=0.500;entryDx=0;entryDy=0;" parent="1" source="node24" target="node2" edge="1">
          <mxGeometry width="50" height="50" relative="1" as="geometry">
            <Array as="points">
              <mxPoint x="5046" y="3150" />
              <mxPoint x="5046" y="2770" />
            </Array>
          </mxGeometry>
        </mxCell>
        <mxCell id="label258" value="1" style="edgeLabel;resizable=0;html=1;align=left;verticalAlign=top;strokeColor=default;" parent="edge43" vertex="1" connectable="0">
          <mxGeometry x="4804" y="3132" as="geometry" />
        </mxCell>
        <mxCell id="label262" value="1" style="edgeLabel;resizable=0;html=1;align=left;verticalAlign=top;strokeColor=default;" parent="edge43" vertex="1" connectable="0">
          <mxGeometry x="5142" y="2752" as="geometry" />
        </mxCell>
        <mxCell id="label263" value="semesterEnum" style="edgeLabel;resizable=0;html=1;align=left;verticalAlign=top;strokeColor=default;" parent="edge43" vertex="1" connectable="0">
          <mxGeometry x="5046" y="2799" as="geometry" />
        </mxCell>
        <mxCell id="edge46" value="" style="html=1;rounded=1;edgeStyle=orthogonalEdgeStyle;dashed=0;startArrow=diamondThinstartSize=12;endArrow=openThin;endSize=12;strokeColor=#595959;exitX=1.000;exitY=0.250;exitDx=0;exitDy=0;entryX=1.000;entryY=0.500;entryDx=0;entryDy=0;" parent="1" source="node3" target="node8" edge="1">
          <mxGeometry width="50" height="50" relative="1" as="geometry">
            <Array as="points">
              <mxPoint x="606" y="1110" />
              <mxPoint x="606" y="1110" />
              <mxPoint x="1546" y="1110" />
              <mxPoint x="1546" y="1130" />
              <mxPoint x="3046" y="1130" />
              <mxPoint x="3046" y="770" />
            </Array>
          </mxGeometry>
        </mxCell>
        <mxCell id="label276" value="1" style="edgeLabel;resizable=0;html=1;align=left;verticalAlign=top;strokeColor=default;" parent="edge46" vertex="1" connectable="0">
          <mxGeometry x="584" y="1092" as="geometry" />
        </mxCell>
        <mxCell id="label280" value="1" style="edgeLabel;resizable=0;html=1;align=left;verticalAlign=top;strokeColor=default;" parent="edge46" vertex="1" connectable="0">
          <mxGeometry x="1915" y="1112" as="geometry" />
        </mxCell>
        <mxCell id="label281" value="studyGroupService" style="edgeLabel;resizable=0;html=1;align=left;verticalAlign=top;strokeColor=default;" parent="edge46" vertex="1" connectable="0">
          <mxGeometry x="1256" y="1110" as="geometry" />
        </mxCell>
        <mxCell id="edge33" value="" style="html=1;rounded=1;edgeStyle=orthogonalEdgeStyle;dashed=0;startArrow=diamondThinstartSize=12;endArrow=openThin;endSize=12;strokeColor=#595959;exitX=1.000;exitY=0.833;exitDx=0;exitDy=0;entryX=0.000;entryY=0.250;entryDx=0;entryDy=0;" parent="1" source="node39" target="node12" edge="1">
          <mxGeometry width="50" height="50" relative="1" as="geometry">
            <Array as="points">
              <mxPoint x="2086" y="299" />
              <mxPoint x="2086" y="330" />
              <mxPoint x="3346" y="330" />
              <mxPoint x="3346" y="1890" />
              <mxPoint x="4026" y="1890" />
              <mxPoint x="4026" y="1888" />
            </Array>
          </mxGeometry>
        </mxCell>
        <mxCell id="label198" value="1" style="edgeLabel;resizable=0;html=1;align=left;verticalAlign=top;strokeColor=default;" parent="edge33" vertex="1" connectable="0">
          <mxGeometry x="2074" y="290" as="geometry" />
        </mxCell>
        <mxCell id="label202" value="1" style="edgeLabel;resizable=0;html=1;align=left;verticalAlign=top;strokeColor=default;" parent="edge33" vertex="1" connectable="0">
          <mxGeometry x="3850" y="1872" as="geometry" />
        </mxCell>
        <mxCell id="label203" value="personMapper" style="edgeLabel;resizable=0;html=1;align=left;verticalAlign=top;strokeColor=default;" parent="edge33" vertex="1" connectable="0">
          <mxGeometry x="3346" y="1491" as="geometry" />
        </mxCell>
        <mxCell id="edge48" value="" style="html=1;rounded=1;edgeStyle=orthogonalEdgeStyle;dashed=0;startArrow=diamondThinstartSize=12;endArrow=openThin;endSize=12;strokeColor=#595959;exitX=1.000;exitY=0.500;exitDx=0;exitDy=0;entryX=0.000;entryY=0.500;entryDx=0;entryDy=0;" parent="1" source="node8" target="node33" edge="1">
          <mxGeometry width="50" height="50" relative="1" as="geometry">
            <Array as="points">
              <mxPoint x="2146" y="770" />
              <mxPoint x="2146" y="870" />
              <mxPoint x="3326" y="870" />
              <mxPoint x="3326" y="830" />
              <mxPoint x="3446" y="830" />
              <mxPoint x="3446" y="1290" />
            </Array>
          </mxGeometry>
        </mxCell>
        <mxCell id="label288" value="1" style="edgeLabel;resizable=0;html=1;align=left;verticalAlign=top;strokeColor=default;" parent="edge48" vertex="1" connectable="0">
          <mxGeometry x="2435" y="852" as="geometry" />
        </mxCell>
        <mxCell id="label292" value="1" style="edgeLabel;resizable=0;html=1;align=left;verticalAlign=top;strokeColor=default;" parent="edge48" vertex="1" connectable="0">
          <mxGeometry x="4096" y="1272" as="geometry" />
        </mxCell>
        <mxCell id="label293" value="coordinatesRepository" style="edgeLabel;resizable=0;html=1;align=left;verticalAlign=top;strokeColor=default;" parent="edge48" vertex="1" connectable="0">
          <mxGeometry x="3976" y="1290" as="geometry" />
        </mxCell>
        <mxCell id="edge47" value="" style="html=1;rounded=1;edgeStyle=orthogonalEdgeStyle;dashed=0;startArrow=diamondThinstartSize=12;endArrow=openThin;endSize=12;strokeColor=#595959;exitX=1.000;exitY=0.500;exitDx=0;exitDy=0;entryX=0.000;entryY=0.500;entryDx=0;entryDy=0;" parent="1" source="node8" target="node55" edge="1">
          <mxGeometry width="50" height="50" relative="1" as="geometry">
            <Array as="points">
              <mxPoint x="2146" y="770" />
              <mxPoint x="2146" y="870" />
              <mxPoint x="3266" y="870" />
              <mxPoint x="3266" y="2070" />
            </Array>
          </mxGeometry>
        </mxCell>
        <mxCell id="label282" value="1" style="edgeLabel;resizable=0;html=1;align=left;verticalAlign=top;strokeColor=default;" parent="edge47" vertex="1" connectable="0">
          <mxGeometry x="2134" y="836" as="geometry" />
        </mxCell>
        <mxCell id="label286" value="1" style="edgeLabel;resizable=0;html=1;align=left;verticalAlign=top;strokeColor=default;" parent="edge47" vertex="1" connectable="0">
          <mxGeometry x="3485" y="2052" as="geometry" />
        </mxCell>
        <mxCell id="label287" value="entityChangeNotifier" style="edgeLabel;resizable=0;html=1;align=left;verticalAlign=top;strokeColor=default;" parent="edge47" vertex="1" connectable="0">
          <mxGeometry x="3341" y="2070" as="geometry" />
        </mxCell>
        <mxCell id="edge16" value="" style="html=1;rounded=1;edgeStyle=orthogonalEdgeStyle;dashed=0;startArrow=diamondThinstartSize=12;endArrow=openThin;endSize=12;strokeColor=#595959;exitX=1.000;exitY=0.500;exitDx=0;exitDy=0;entryX=0.000;entryY=0.250;entryDx=0;entryDy=0;" parent="1" source="node8" target="node56" edge="1">
          <mxGeometry width="50" height="50" relative="1" as="geometry">
            <Array as="points">
              <mxPoint x="2146" y="770" />
              <mxPoint x="2146" y="870" />
              <mxPoint x="3206" y="870" />
              <mxPoint x="3206" y="2450" />
              <mxPoint x="3986" y="2450" />
              <mxPoint x="3986" y="2458" />
            </Array>
          </mxGeometry>
        </mxCell>
        <mxCell id="label96" value="1" style="edgeLabel;resizable=0;html=1;align=left;verticalAlign=top;strokeColor=default;" parent="edge16" vertex="1" connectable="0">
          <mxGeometry x="2405" y="852" as="geometry" />
        </mxCell>
        <mxCell id="label100" value="1" style="edgeLabel;resizable=0;html=1;align=left;verticalAlign=top;strokeColor=default;" parent="edge16" vertex="1" connectable="0">
          <mxGeometry x="3785" y="2432" as="geometry" />
        </mxCell>
        <mxCell id="label101" value="locationMapper" style="edgeLabel;resizable=0;html=1;align=left;verticalAlign=top;strokeColor=default;" parent="edge16" vertex="1" connectable="0">
          <mxGeometry x="3355" y="2450" as="geometry" />
        </mxCell>
        <mxCell id="edge10" value="" style="html=1;rounded=1;edgeStyle=orthogonalEdgeStyle;dashed=0;startArrow=diamondThinstartSize=12;endArrow=openThin;endSize=12;strokeColor=#595959;exitX=1.000;exitY=0.500;exitDx=0;exitDy=0;entryX=0.000;entryY=0.500;entryDx=0;entryDy=0;" parent="1" source="node8" target="node42" edge="1">
          <mxGeometry width="50" height="50" relative="1" as="geometry">
            <Array as="points">
              <mxPoint x="2146" y="770" />
              <mxPoint x="2146" y="870" />
              <mxPoint x="3246" y="870" />
              <mxPoint x="3246" y="2170" />
            </Array>
          </mxGeometry>
        </mxCell>
        <mxCell id="label60" value="1" style="edgeLabel;resizable=0;html=1;align=left;verticalAlign=top;strokeColor=default;" parent="edge10" vertex="1" connectable="0">
          <mxGeometry x="2323" y="852" as="geometry" />
        </mxCell>
        <mxCell id="label64" value="1" style="edgeLabel;resizable=0;html=1;align=left;verticalAlign=top;strokeColor=default;" parent="edge10" vertex="1" connectable="0">
          <mxGeometry x="3974" y="2152" as="geometry" />
        </mxCell>
        <mxCell id="label65" value="locationRepository" style="edgeLabel;resizable=0;html=1;align=left;verticalAlign=top;strokeColor=default;" parent="edge10" vertex="1" connectable="0">
          <mxGeometry x="3779" y="2170" as="geometry" />
        </mxCell>
        <mxCell id="edge21" value="" style="html=1;rounded=1;edgeStyle=orthogonalEdgeStyle;dashed=0;startArrow=diamondThinstartSize=12;endArrow=openThin;endSize=12;strokeColor=#595959;exitX=1.000;exitY=0.500;exitDx=0;exitDy=0;entryX=0.000;entryY=0.500;entryDx=0;entryDy=0;" parent="1" source="node8" target="node23" edge="1">
          <mxGeometry width="50" height="50" relative="1" as="geometry">
            <Array as="points">
              <mxPoint x="2146" y="770" />
              <mxPoint x="2146" y="870" />
              <mxPoint x="3286" y="870" />
              <mxPoint x="3286" y="1330" />
            </Array>
          </mxGeometry>
        </mxCell>
        <mxCell id="label126" value="1" style="edgeLabel;resizable=0;html=1;align=left;verticalAlign=top;strokeColor=default;" parent="edge21" vertex="1" connectable="0">
          <mxGeometry x="2134" y="861" as="geometry" />
        </mxCell>
        <mxCell id="label130" value="1" style="edgeLabel;resizable=0;html=1;align=left;verticalAlign=top;strokeColor=default;" parent="edge21" vertex="1" connectable="0">
          <mxGeometry x="3616" y="1312" as="geometry" />
        </mxCell>
        <mxCell id="label131" value="personRepository" style="edgeLabel;resizable=0;html=1;align=left;verticalAlign=top;strokeColor=default;" parent="edge21" vertex="1" connectable="0">
          <mxGeometry x="3523" y="1330" as="geometry" />
        </mxCell>
        <mxCell id="edge41" value="" style="html=1;rounded=1;edgeStyle=orthogonalEdgeStyle;dashed=0;startArrow=diamondThinstartSize=12;endArrow=openThin;endSize=12;strokeColor=#595959;exitX=1.000;exitY=0.500;exitDx=0;exitDy=0;entryX=0.000;entryY=0.500;entryDx=0;entryDy=0;" parent="1" source="node8" target="node10" edge="1">
          <mxGeometry width="50" height="50" relative="1" as="geometry">
            <Array as="points">
              <mxPoint x="2146" y="770" />
              <mxPoint x="2146" y="870" />
              <mxPoint x="3126" y="870" />
              <mxPoint x="3126" y="310" />
              <mxPoint x="3466" y="310" />
              <mxPoint x="3466" y="1150" />
            </Array>
          </mxGeometry>
        </mxCell>
        <mxCell id="label246" value="1" style="edgeLabel;resizable=0;html=1;align=left;verticalAlign=top;strokeColor=default;" parent="edge41" vertex="1" connectable="0">
          <mxGeometry x="2134" y="786" as="geometry" />
        </mxCell>
        <mxCell id="label250" value="1" style="edgeLabel;resizable=0;html=1;align=left;verticalAlign=top;strokeColor=default;" parent="edge41" vertex="1" connectable="0">
          <mxGeometry x="3832" y="1132" as="geometry" />
        </mxCell>
        <mxCell id="label251" value="studyGroupRepository" style="edgeLabel;resizable=0;html=1;align=left;verticalAlign=top;strokeColor=default;" parent="edge41" vertex="1" connectable="0">
          <mxGeometry x="3826" y="1150" as="geometry" />
        </mxCell>
        <mxCell id="edge40" value="" style="html=1;rounded=1;edgeStyle=orthogonalEdgeStyle;dashed=0;startArrow=diamondThinstartSize=12;endArrow=openThin;endSize=12;strokeColor=#595959;exitX=1.000;exitY=0.500;exitDx=0;exitDy=0;entryX=0.000;entryY=0.500;entryDx=0;entryDy=0;" parent="1" source="node41" target="node33" edge="1">
          <mxGeometry width="50" height="50" relative="1" as="geometry">
            <Array as="points">
              <mxPoint x="1246" y="530" />
              <mxPoint x="1246" y="410" />
              <mxPoint x="1386" y="410" />
              <mxPoint x="1386" y="370" />
              <mxPoint x="3366" y="370" />
              <mxPoint x="3366" y="830" />
              <mxPoint x="3446" y="830" />
              <mxPoint x="3446" y="1290" />
            </Array>
          </mxGeometry>
        </mxCell>
        <mxCell id="label240" value="1" style="edgeLabel;resizable=0;html=1;align=left;verticalAlign=top;strokeColor=default;" parent="edge40" vertex="1" connectable="0">
          <mxGeometry x="1229" y="472" as="geometry" />
        </mxCell>
        <mxCell id="label244" value="1" style="edgeLabel;resizable=0;html=1;align=left;verticalAlign=top;strokeColor=default;" parent="edge40" vertex="1" connectable="0">
          <mxGeometry x="3940" y="1272" as="geometry" />
        </mxCell>
        <mxCell id="label245" value="coordinatesRepository" style="edgeLabel;resizable=0;html=1;align=left;verticalAlign=top;strokeColor=default;" parent="edge40" vertex="1" connectable="0">
          <mxGeometry x="3446" y="1166" as="geometry" />
        </mxCell>
        <mxCell id="edge29" value="" style="html=1;rounded=1;edgeStyle=orthogonalEdgeStyle;dashed=0;startArrow=diamondThinstartSize=12;endArrow=openThin;endSize=12;strokeColor=#595959;exitX=1.000;exitY=0.500;exitDx=0;exitDy=0;entryX=0.000;entryY=0.500;entryDx=0;entryDy=0;" parent="1" source="node41" target="node55" edge="1">
          <mxGeometry width="50" height="50" relative="1" as="geometry">
            <Array as="points">
              <mxPoint x="1246" y="530" />
              <mxPoint x="1246" y="410" />
              <mxPoint x="3066" y="410" />
              <mxPoint x="3066" y="2070" />
            </Array>
          </mxGeometry>
        </mxCell>
        <mxCell id="label174" value="1" style="edgeLabel;resizable=0;html=1;align=left;verticalAlign=top;strokeColor=default;" parent="edge29" vertex="1" connectable="0">
          <mxGeometry x="1543" y="392" as="geometry" />
        </mxCell>
        <mxCell id="label178" value="1" style="edgeLabel;resizable=0;html=1;align=left;verticalAlign=top;strokeColor=default;" parent="edge29" vertex="1" connectable="0">
          <mxGeometry x="3374" y="2052" as="geometry" />
        </mxCell>
        <mxCell id="label179" value="entityChangeNotifier" style="edgeLabel;resizable=0;html=1;align=left;verticalAlign=top;strokeColor=default;" parent="edge29" vertex="1" connectable="0">
          <mxGeometry x="3066" y="1784" as="geometry" />
        </mxCell>
        <mxCell id="edge54" value="" style="html=1;rounded=1;edgeStyle=orthogonalEdgeStyle;dashed=0;startArrow=diamondThinstartSize=12;endArrow=openThin;endSize=12;strokeColor=#595959;exitX=1.000;exitY=0.500;exitDx=0;exitDy=0;entryX=0.000;entryY=0.500;entryDx=0;entryDy=0;" parent="1" source="node41" target="node10" edge="1">
          <mxGeometry width="50" height="50" relative="1" as="geometry">
            <Array as="points">
              <mxPoint x="1246" y="530" />
              <mxPoint x="1246" y="410" />
              <mxPoint x="1386" y="410" />
              <mxPoint x="1386" y="330" />
              <mxPoint x="2106" y="330" />
              <mxPoint x="2106" y="310" />
              <mxPoint x="3466" y="310" />
              <mxPoint x="3466" y="1150" />
            </Array>
          </mxGeometry>
        </mxCell>
        <mxCell id="label324" value="1" style="edgeLabel;resizable=0;html=1;align=left;verticalAlign=top;strokeColor=default;" parent="edge54" vertex="1" connectable="0">
          <mxGeometry x="1560" y="312" as="geometry" />
        </mxCell>
        <mxCell id="label328" value="1" style="edgeLabel;resizable=0;html=1;align=left;verticalAlign=top;strokeColor=default;" parent="edge54" vertex="1" connectable="0">
          <mxGeometry x="3946" y="1132" as="geometry" />
        </mxCell>
        <mxCell id="edge45" value="" style="html=1;rounded=1;edgeStyle=orthogonalEdgeStyle;dashed=0;startArrow=diamondThinstartSize=12;endArrow=openThin;endSize=12;strokeColor=#595959;exitX=1.000;exitY=0.500;exitDx=0;exitDy=0;entryX=1.000;entryY=0.500;entryDx=0;entryDy=0;" parent="1" source="node41" target="node8" edge="1">
          <mxGeometry width="50" height="50" relative="1" as="geometry">
            <Array as="points">
              <mxPoint x="1246" y="530" />
              <mxPoint x="1246" y="410" />
              <mxPoint x="1526" y="410" />
              <mxPoint x="1526" y="1110" />
              <mxPoint x="1546" y="1110" />
              <mxPoint x="1546" y="1130" />
              <mxPoint x="3046" y="1130" />
              <mxPoint x="3046" y="770" />
            </Array>
          </mxGeometry>
        </mxCell>
        <mxCell id="label270" value="1" style="edgeLabel;resizable=0;html=1;align=left;verticalAlign=top;strokeColor=default;" parent="edge45" vertex="1" connectable="0">
          <mxGeometry x="1450" y="392" as="geometry" />
        </mxCell>
        <mxCell id="label274" value="1" style="edgeLabel;resizable=0;html=1;align=left;verticalAlign=top;strokeColor=default;" parent="edge45" vertex="1" connectable="0">
          <mxGeometry x="1514" y="576" as="geometry" />
        </mxCell>
        <mxCell id="label275" value="service" style="edgeLabel;resizable=0;html=1;align=left;verticalAlign=top;strokeColor=default;" parent="edge45" vertex="1" connectable="0">
          <mxGeometry x="1526" y="926" as="geometry" />
        </mxCell>
        <mxCell id="edge24" value="" style="html=1;rounded=1;edgeStyle=orthogonalEdgeStyle;dashed=0;startArrow=diamondThinstartSize=12;endArrow=openThin;endSize=12;strokeColor=#595959;exitX=1.000;exitY=0.500;exitDx=0;exitDy=0;entryX=1.000;entryY=0.500;entryDx=0;entryDy=0;" parent="1" source="node28" target="node17" edge="1">
          <mxGeometry width="50" height="50" relative="1" as="geometry">
            <Array as="points">
              <mxPoint x="1226" y="2130" />
              <mxPoint x="1226" y="2170" />
              <mxPoint x="2086" y="2170" />
              <mxPoint x="2086" y="2270" />
            </Array>
          </mxGeometry>
        </mxCell>
        <mxCell id="label144" value="1" style="edgeLabel;resizable=0;html=1;align=left;verticalAlign=top;strokeColor=default;" parent="edge24" vertex="1" connectable="0">
          <mxGeometry x="1208" y="2112" as="geometry" />
        </mxCell>
        <mxCell id="label148" value="1" style="edgeLabel;resizable=0;html=1;align=left;verticalAlign=top;strokeColor=default;" parent="edge24" vertex="1" connectable="0">
          <mxGeometry x="1793" y="2152" as="geometry" />
        </mxCell>
        <mxCell id="label149" value="entityChangeWebSocketHandler" style="edgeLabel;resizable=0;html=1;align=left;verticalAlign=top;strokeColor=default;" parent="edge24" vertex="1" connectable="0">
          <mxGeometry x="2086" y="2186" as="geometry" />
        </mxCell>
      </root>
    </mxGraphModel>
  </diagram>
</mxfile>
